<svg width="18" height="17" viewBox="0 0 18 17" fill="none" xmlns="http://www.w3.org/2000/svg">
<g id="en">
<path id="Clip 2" d="M0.875 8.45031C0.875 12.8406 4.43395 16.4006 8.82484 16.4006C13.2152 16.4006 16.7752 12.8407 16.7752 8.45031C16.7752 4.05897 13.2152 0.5 8.82484 0.5C4.43399 0.5 0.875 4.05903 0.875 8.45031Z" stroke="#DDDDDD"/>
<mask id="mask0" mask-type="alpha" maskUnits="userSpaceOnUse" x="0" y="0" width="18" height="17">
<path id="Clip 2_2" d="M0.875 8.45031C0.875 12.8406 4.43395 16.4006 8.82484 16.4006C13.2152 16.4006 16.7752 12.8407 16.7752 8.45031C16.7752 4.05897 13.2152 0.5 8.82484 0.5C4.43399 0.5 0.875 4.05903 0.875 8.45031Z" fill="white" stroke="white"/>
</mask>
<g mask="url(#mask0)">
<path id="Fill 1" fill-rule="evenodd" clip-rule="evenodd" d="M-3.92236 16.2536H21.5715V0.660156H-3.92236V16.2536Z" fill="#04247B"/>
<path id="Fill 3" fill-rule="evenodd" clip-rule="evenodd" d="M18.6943 0.646729L10.9289 5.42892L-3.922 14.5259V16.2533H-1.04293L21.5719 2.38813V0.659854L21.1097 0.646729H18.6943Z" fill="white"/>
<path id="Fill 4" fill-rule="evenodd" clip-rule="evenodd" d="M21.5718 14.5258L-0.978838 0.659668H-3.92212V2.43951L18.7358 16.2536H21.5718V14.5258Z" fill="white"/>
<path id="Fill 5" fill-rule="evenodd" clip-rule="evenodd" d="M-3.92212 11.0688H21.5718V5.84412H-3.92212V11.0688Z" fill="white"/>
<path id="Fill 6" fill-rule="evenodd" clip-rule="evenodd" d="M6.71141 16.2535L6.71094 0.659931L10.9597 0.65979L10.9602 16.2534L6.71141 16.2535Z" fill="white"/>
<path id="Fill 7" fill-rule="evenodd" clip-rule="evenodd" d="M-3.92212 10.029H21.5718V6.91089H-3.92212V10.029Z" fill="#CE142A"/>
<path id="Fill 8" fill-rule="evenodd" clip-rule="evenodd" d="M19.6711 0.646729L11.1295 5.86204H13.0847L21.5719 0.659854L21.1097 0.646729H19.6711Z" fill="#CE142A"/>
<path id="Fill 9" fill-rule="evenodd" clip-rule="evenodd" d="M7.53918 16.2534L7.56075 0.656494L10.0892 0.66001L10.0676 16.257L7.53918 16.2534Z" fill="#CE142A"/>
<path id="Fill 10" fill-rule="evenodd" clip-rule="evenodd" d="M-3.922 0.659912L4.54457 5.85319L2.65363 5.85132L-3.922 1.79007V0.659912Z" fill="#CE142A"/>
<path id="Fill 11" fill-rule="evenodd" clip-rule="evenodd" d="M-3.922 16.2534L4.54457 11.0686H6.39238L-1.99918 16.2534H-3.922Z" fill="#CE142A"/>
<path id="Fill 12" fill-rule="evenodd" clip-rule="evenodd" d="M13.1484 11.0688L21.5719 16.2537V15.071L14.9963 11.0688H13.1484Z" fill="#CE142A"/>
</g>
</g>
</svg>
