<svg width="26" height="27" viewBox="0 0 26 27" fill="none" xmlns="http://www.w3.org/2000/svg">
<g id="flag-it">
<path id="Clip 2" d="M12.9205 25.707C19.7793 25.707 25.341 20.147 25.341 13.2873C25.341 6.42839 19.7794 0.866781 12.9205 0.866781C6.06007 0.866781 0.5 6.42843 0.5 13.2873C0.5 20.1469 6.06013 25.707 12.9205 25.707Z" stroke="#DDDDDD"/>
<mask id="mask0" mask-type="alpha" maskUnits="userSpaceOnUse" x="0" y="0" width="26" height="27">
<path id="Clip 2_2" d="M12.9205 25.707C19.7793 25.707 25.341 20.147 25.341 13.2873C25.341 6.42839 19.7794 0.866781 12.9205 0.866781C6.06007 0.866781 0.5 6.42843 0.5 13.2873C0.5 20.1469 6.06013 25.707 12.9205 25.707Z" fill="white" stroke="white"/>
</mask>
<g mask="url(#mask0)">
<path id="Fill 1" fill-rule="evenodd" clip-rule="evenodd" d="M25.4056 33.6827L25.4056 -7.10751H0.456055L0.456055 33.6827H25.4056Z" fill="#04247B"/>
<path id="Path" d="M17.0588 25.207C21.6956 23.3237 25 18.4381 25 12.707C25 6.97601 21.6956 2.09033 17.0588 0.207031L16 12.707L17.0588 25.207Z" fill="#D80027"/>
<path id="Path_2" d="M1 12.707C1 18.4381 4.3044 23.3237 8.94122 25.207L10 12.707L8.94117 0.207031C4.3044 2.09033 1 6.97601 1 12.707Z" fill="#5BA831"/>
<path id="Path_3" d="M9 25.3984C10.2458 25.921 11.5933 26.207 13 26.207C14.4067 26.207 15.7542 25.921 17 25.3984V1.01557C15.7542 0.493031 14.4067 0.207031 13 0.207031C11.5933 0.207031 10.2458 0.493031 9 1.01562L9 25.3984Z" fill="#F0F0F0"/>
</g>
</g>
</svg>
