<svg width="120" height="25" viewBox="0 0 120 25" fill="none" xmlns="http://www.w3.org/2000/svg">
<g id="TeslaPay_logo">
<path id="Shape" d="M0.838141 3.31183C0.522314 3.31183 0.206488 3.11444 0.088053 2.77887C-0.0501211 2.36435 0.16701 1.93009 0.581532 1.77217C2.10145 1.23922 3.6411 0.824696 5.14128 0.548348C6.66119 0.291738 8.16137 0.153564 9.66154 0.153564C11.142 0.153564 12.6422 0.291739 14.1029 0.568087C15.5635 0.844435 17.0242 1.25896 18.4455 1.79191C18.86 1.94983 19.0574 2.40383 18.8995 2.81835C18.7416 3.23287 18.2876 3.43026 17.8928 3.27235C16.5505 2.75913 15.1688 2.38409 13.8068 2.12748C12.4448 1.85113 11.0433 1.7327 9.66154 1.7327C8.26006 1.7327 6.83884 1.87087 5.43736 2.10774C4.01614 2.36435 2.55545 2.75913 1.11449 3.25261C1.01579 3.29209 0.936836 3.31183 0.838141 3.31183Z" fill="url(#paint0_linear)"/>
<path id="Shape_2" d="M18.1693 6.47001C18.0903 6.47001 18.0311 6.47001 17.9521 6.45027C12.4449 4.91061 6.74028 4.91061 0.996188 6.45027C0.581666 6.54896 0.147405 6.31209 0.0289697 5.87783C-0.0894652 5.46331 0.167144 5.02905 0.581666 4.91061C6.60211 3.292 12.5831 3.292 18.3666 4.91061C18.7812 5.02905 19.0378 5.46331 18.9193 5.87783C18.8404 6.23314 18.5246 6.47001 18.1693 6.47001Z" fill="url(#paint1_linear)"/>
<path id="Shape_3" d="M12.6424 8.83878H6.3456C5.91134 8.83878 5.55603 8.48347 5.55603 8.04921C5.55603 7.61495 5.91134 7.25964 6.3456 7.25964H12.6226C13.0569 7.25964 13.4122 7.61495 13.4122 8.04921C13.4122 8.48347 13.0766 8.83878 12.6424 8.83878Z" fill="url(#paint2_linear)"/>
<path id="Shape_4" d="M9.50387 12.2537C8.41822 12.2537 7.31283 12.1747 6.24691 11.9971C5.81265 11.9181 5.51656 11.5233 5.59552 11.0891C5.67448 10.6548 6.06926 10.3587 6.50352 10.4377C8.49718 10.7535 10.5303 10.7535 12.5634 10.4377C12.9977 10.3785 13.3925 10.6548 13.4714 11.0891C13.5307 11.5233 13.2543 11.9181 12.8201 11.9971C11.6949 12.155 10.5895 12.2537 9.50387 12.2537Z" fill="url(#paint3_linear)"/>
<path id="Shape_5" d="M9.50378 15.5698C8.39839 15.5698 7.27326 15.4316 6.14812 15.1356C5.7336 15.0171 5.47699 14.6026 5.57569 14.1683C5.67438 13.7538 6.10865 13.4972 6.54291 13.5959C7.52987 13.8525 8.51682 13.9709 9.50378 13.9709C10.4907 13.9709 11.4777 13.8328 12.4647 13.5959C12.8792 13.4775 13.3134 13.7341 13.4319 14.1683C13.5306 14.5829 13.2937 15.0171 12.8594 15.1356C11.7343 15.4119 10.6092 15.5698 9.50378 15.5698Z" fill="url(#paint4_linear)"/>
<path id="Shape_6" d="M9.54305 19.1031C8.37844 19.1031 7.19409 18.807 6.00974 18.2346C5.61496 18.0372 5.45705 17.5635 5.65444 17.1687C5.85183 16.7739 6.32557 16.616 6.70061 16.8134C7.64809 17.2871 8.59557 17.524 9.50357 17.524H9.52331C10.4313 17.524 11.3788 17.2871 12.2868 16.8331C12.6816 16.6357 13.1553 16.7936 13.333 17.1884C13.5304 17.5832 13.3724 18.0569 12.9777 18.2543C11.8525 18.8268 10.7077 19.1031 9.54305 19.1031Z" fill="url(#paint5_linear)"/>
<path id="Shape_7" d="M25.5912 5.58188H22.0974V3.90405H31.059V5.58188H27.5652V14.5632H25.611V5.58188H25.5912Z" fill="#58595B"/>
<path id="Shape_8" fill-rule="evenodd" clip-rule="evenodd" d="M32.6577 11.1878H38.9742C38.976 11.1659 38.9779 11.1443 38.9797 11.1231C38.9973 10.9151 39.0119 10.7426 38.994 10.6351C38.994 9.82579 38.836 9.09544 38.4807 8.46378C38.1452 7.83213 37.6517 7.35839 37.0398 7.00309C36.4081 6.66752 35.7173 6.48987 34.9277 6.48987C34.1381 6.48987 33.4275 6.66752 32.7959 7.02283C32.1642 7.35839 31.6707 7.85187 31.3154 8.48352C30.9601 9.11518 30.7825 9.80605 30.7825 10.5956C30.7825 11.3852 30.9601 12.0958 31.3352 12.7274C31.7102 13.3394 32.2234 13.8328 32.8946 14.1881C33.5657 14.5434 34.3355 14.7211 35.2238 14.7211C35.9147 14.7211 36.5463 14.6027 37.099 14.3855C37.632 14.1487 38.1057 13.8328 38.461 13.3986L37.4543 12.234C36.8819 12.8064 36.1515 13.1025 35.2633 13.1025C34.5724 13.1025 34 12.9446 33.5262 12.5893C33.0525 12.2537 32.7761 11.78 32.6577 11.1878ZM32.6379 9.92445C32.7366 9.33228 32.9932 8.85854 33.4077 8.50323C33.8222 8.14793 34.3355 7.97028 34.9276 7.97028C35.5395 7.97028 36.0528 8.14793 36.4673 8.50323C36.8621 8.87828 37.1187 9.33228 37.1976 9.92445H32.6379Z" fill="#58595B"/>
<path id="Shape_9" d="M41.4023 14.4644C40.7706 14.2867 40.2771 14.0696 39.9021 13.813L40.6324 12.372C40.9878 12.6089 41.422 12.8063 41.9352 12.9445C42.4485 13.0826 42.9419 13.1616 43.4354 13.1616C44.5605 13.1616 45.1132 12.8655 45.1132 12.2733C45.1132 11.997 44.9751 11.7996 44.679 11.6812C44.3829 11.5627 43.9289 11.464 43.2972 11.3653C42.6261 11.2666 42.0931 11.1482 41.6786 11.01C41.2641 10.8719 40.9088 10.6547 40.593 10.3192C40.2771 9.98359 40.139 9.52959 40.139 8.95715C40.139 8.18733 40.4548 7.57541 41.0864 7.12141C41.7181 6.66741 42.5866 6.43054 43.6723 6.43054C44.225 6.43054 44.7777 6.48976 45.3304 6.62793C45.8831 6.74637 46.3371 6.92402 46.6924 7.14115L45.962 8.58211C45.2711 8.18733 44.5013 7.9702 43.6525 7.9702C43.0998 7.9702 42.6853 8.04915 42.3892 8.2268C42.0931 8.38472 41.955 8.60185 41.955 8.8782C41.955 9.17428 42.1129 9.39142 42.409 9.50985C42.7248 9.62828 43.1985 9.74672 43.8302 9.86515C44.4816 9.96385 44.9948 10.0823 45.4093 10.2205C45.8238 10.3586 46.1792 10.5758 46.4752 10.8916C46.7713 11.2074 46.9292 11.6417 46.9292 12.2141C46.9292 12.9642 46.5937 13.5761 45.9423 14.0301C45.2909 14.4841 44.4026 14.7012 43.2775 14.7012C42.6656 14.721 42.0339 14.6223 41.4023 14.4644Z" fill="#58595B"/>
<path id="Shape_10" d="M48.6465 3.17358H50.5217V14.3657H48.6465V3.17358Z" fill="#58595B"/>
<path id="Shape_11" fill-rule="evenodd" clip-rule="evenodd" d="M59.799 9.88497C59.799 8.7401 59.4831 7.89131 58.8515 7.31888C58.2198 6.74644 57.3316 6.47009 56.1275 6.47009C55.4761 6.47009 54.8444 6.54905 54.2523 6.7267C53.6601 6.88462 53.1469 7.14122 52.7324 7.45705L53.4627 8.81905C53.7588 8.56244 54.1338 8.36505 54.5681 8.22688C55.0221 8.0887 55.4564 8.00975 55.9104 8.00975C56.5815 8.00975 57.075 8.16766 57.4105 8.46375C57.7461 8.77957 57.9238 9.1941 57.9238 9.76653V9.88497H55.8511C54.6865 9.88497 53.8377 10.1021 53.3048 10.5364C52.7718 10.9706 52.4955 11.5431 52.4955 12.2734C52.4955 12.7274 52.6337 13.1419 52.8705 13.517C53.1074 13.892 53.4627 14.1881 53.9167 14.3855C54.3707 14.6026 54.9037 14.7013 55.4958 14.7013C56.088 14.7013 56.6012 14.6026 57.0355 14.425C57.4697 14.2276 57.7856 13.971 58.0224 13.6157V14.6026H59.799V9.88497ZM57.9039 12.0956C57.7658 12.4904 57.5092 12.8062 57.1341 13.0234C56.7788 13.2405 56.3445 13.3392 55.8708 13.3392C55.3971 13.3392 55.022 13.2405 54.7457 13.0431C54.4693 12.8457 54.3312 12.5694 54.3312 12.2338C54.3312 11.5232 54.8641 11.1679 55.9498 11.1679H57.9039V12.0956Z" fill="#58595B"/>
<path id="Shape_12" fill-rule="evenodd" clip-rule="evenodd" d="M70.6557 5.56212C70.3004 4.98968 69.7674 4.55542 69.0963 4.25933C68.4252 3.96325 67.6158 3.82507 66.7078 3.82507H62.3652V14.3658H64.3194V11.326H66.7078C67.6158 11.326 68.4252 11.168 69.0963 10.872C69.7674 10.5759 70.3004 10.1416 70.6557 9.56917C71.011 8.99673 71.1886 8.34534 71.1886 7.57551C71.1886 6.78595 71.011 6.11481 70.6557 5.56212ZM69.2343 7.55585C69.2343 8.22698 68.9974 8.75994 68.5632 9.11525C68.1092 9.49029 67.4775 9.66794 66.6287 9.6482H64.339V5.4635H66.6287C67.4775 5.4635 68.1092 5.62142 68.5632 5.99646C69.0172 6.3715 69.2343 6.88472 69.2343 7.55585Z" fill="#58595B"/>
<path id="Shape_13" fill-rule="evenodd" clip-rule="evenodd" d="M79.933 9.88497C79.933 8.7401 79.6172 7.89131 78.9855 7.31888C78.3539 6.74644 77.4656 6.47009 76.2615 6.47009C75.6101 6.47009 74.9785 6.54905 74.3863 6.7267C73.7941 6.88462 73.2809 7.14122 72.8664 7.45705L73.5967 8.81905C73.8928 8.56244 74.2679 8.36505 74.7021 8.22688C75.1561 8.0887 75.5904 8.00975 76.0444 8.00975C76.7155 8.00975 77.209 8.16766 77.5446 8.46375C77.8801 8.77957 78.0578 9.1941 78.0578 9.76653V9.88497H75.9852C74.8206 9.88497 73.9718 10.1021 73.4388 10.5364C72.9059 10.9706 72.6295 11.5431 72.6295 12.2734C72.6295 12.7274 72.7677 13.1419 73.0046 13.517C73.2414 13.892 73.5967 14.1881 74.0507 14.3855C74.5047 14.6026 75.0377 14.7013 75.6299 14.7013C76.222 14.7013 76.7353 14.6026 77.1695 14.425C77.6038 14.2276 77.9196 13.971 78.1565 13.6157V14.6026H79.933V9.88497ZM78.038 12.0956C77.8998 12.4904 77.6432 12.8062 77.2682 13.0234C76.9128 13.2405 76.4786 13.3392 76.0048 13.3392C75.5311 13.3392 75.1561 13.2405 74.8797 13.0431C74.6034 12.8457 74.4652 12.5694 74.4652 12.2338C74.4652 11.5232 74.9981 11.1679 76.0838 11.1679H78.038V12.0956Z" fill="#58595B"/>
<path id="Shape_14" d="M89.9999 6.47009L86.2297 15.1751C85.8744 16.0436 85.4599 16.6555 84.9467 17.0305C84.4532 17.3858 83.8413 17.5635 83.1307 17.5635C82.7359 17.5635 82.3411 17.5043 81.9463 17.3661C81.5516 17.2279 81.2357 17.0503 80.9791 16.8331L81.7292 15.4514C81.9069 15.6291 82.124 15.7672 82.3609 15.8659C82.5977 15.9646 82.8543 16.0238 83.111 16.0238C83.4465 16.0238 83.7229 15.9449 83.94 15.7672C84.1571 15.5896 84.3545 15.3132 84.5322 14.9185L84.6703 14.6026L81.1568 6.47009H83.111L85.6376 12.4313L88.1839 6.47009H89.9999Z" fill="#58595B"/>
</g>
<defs>
<linearGradient id="paint0_linear" x1="0.0531739" y1="3.31918" x2="18.9581" y2="3.31918" gradientUnits="userSpaceOnUse">
<stop offset="0.0231316" stop-color="#F1BA46"/>
<stop offset="0.5042" stop-color="#F0CF64"/>
<stop offset="1" stop-color="#DB9638"/>
</linearGradient>
<linearGradient id="paint1_linear" x1="0.00859271" y1="6.4765" x2="18.9582" y2="6.4765" gradientUnits="userSpaceOnUse">
<stop offset="0.0231316" stop-color="#F1BA46"/>
<stop offset="0.5042" stop-color="#F0CF64"/>
<stop offset="1" stop-color="#DB9638"/>
</linearGradient>
<linearGradient id="paint2_linear" x1="5.56742" y1="8.83915" x2="13.4285" y2="8.83915" gradientUnits="userSpaceOnUse">
<stop offset="0.0231316" stop-color="#F1BA46"/>
<stop offset="0.5042" stop-color="#F0CF64"/>
<stop offset="1" stop-color="#DB9638"/>
</linearGradient>
<linearGradient id="paint3_linear" x1="5.56731" y1="12.245" x2="13.4444" y2="12.245" gradientUnits="userSpaceOnUse">
<stop offset="0.0231316" stop-color="#F1BA46"/>
<stop offset="0.5042" stop-color="#F0CF64"/>
<stop offset="1" stop-color="#DB9638"/>
</linearGradient>
<linearGradient id="paint4_linear" x1="5.56714" y1="15.567" x2="13.4444" y2="15.567" gradientUnits="userSpaceOnUse">
<stop offset="0.0231316" stop-color="#F1BA46"/>
<stop offset="0.5042" stop-color="#F0CF64"/>
<stop offset="1" stop-color="#DB9638"/>
</linearGradient>
<linearGradient id="paint5_linear" x1="5.56695" y1="19.11" x2="13.4442" y2="19.11" gradientUnits="userSpaceOnUse">
<stop offset="0.0231316" stop-color="#F1BA46"/>
<stop offset="0.5042" stop-color="#F0CF64"/>
<stop offset="1" stop-color="#DB9638"/>
</linearGradient>
</defs>
</svg>
