<svg width="190" height="40" viewBox="0 0 190 40" fill="none" xmlns="http://www.w3.org/2000/svg">
<g id="TeslaPay_logo">
<path id="Shape" d="M1.79163 6.66667C1.12497 6.66667 0.4583 6.25 0.2083 5.54167C-0.0833671 4.66667 0.374966 3.75 1.24997 3.41667C4.4583 2.29167 7.7083 1.41667 10.875 0.833333C14.0833 0.291667 17.25 0 20.4166 0C23.5416 0 26.7083 0.291667 29.7916 0.875C32.875 1.45833 35.9583 2.33333 38.9583 3.45833C39.8333 3.79167 40.25 4.75 39.9166 5.625C39.5833 6.5 38.625 6.91667 37.7916 6.58333C34.9583 5.5 32.0416 4.70833 29.1666 4.16667C26.2916 3.58333 23.3333 3.33333 20.4166 3.33333C17.4583 3.33333 14.4583 3.625 11.5 4.125C8.49997 4.66667 5.41663 5.5 2.37497 6.54167C2.16663 6.625 1.99997 6.66667 1.79163 6.66667Z" fill="url(#paint0_linear)"/>
<path id="Shape_2" d="M38.375 13.3333C38.2083 13.3333 38.0833 13.3333 37.9166 13.2916C26.2916 10.0416 14.25 10.0416 2.12497 13.2916C1.24997 13.5 0.333307 13 0.0833069 12.0833C-0.166693 11.2083 0.374974 10.2916 1.24997 10.0416C13.9583 6.62496 26.5833 6.62496 38.7916 10.0416C39.6666 10.2916 40.2083 11.2083 39.9583 12.0833C39.7916 12.8333 39.125 13.3333 38.375 13.3333Z" fill="url(#paint1_linear)"/>
<path id="Shape_3" d="M26.7083 18.3333H13.4167C12.5 18.3333 11.75 17.5833 11.75 16.6667C11.75 15.75 12.5 15 13.4167 15H26.6667C27.5833 15 28.3333 15.75 28.3333 16.6667C28.3333 17.5833 27.625 18.3333 26.7083 18.3333Z" fill="url(#paint2_linear)"/>
<path id="Shape_4" d="M20.0833 25.5417C17.7917 25.5417 15.4583 25.375 13.2083 25C12.2917 24.8333 11.6667 24 11.8333 23.0833C12 22.1667 12.8333 21.5417 13.75 21.7083C17.9583 22.375 22.25 22.375 26.5417 21.7083C27.4583 21.5833 28.2917 22.1667 28.4583 23.0833C28.5833 24 28 24.8333 27.0833 25C24.7083 25.3333 22.375 25.5417 20.0833 25.5417Z" fill="url(#paint3_linear)"/>
<path id="Shape_5" d="M20.0833 32.5417C17.75 32.5417 15.375 32.25 13 31.625C12.125 31.375 11.5833 30.5 11.7917 29.5834C12 28.7084 12.9167 28.1667 13.8333 28.375C15.9167 28.9167 18 29.1667 20.0833 29.1667C22.1667 29.1667 24.25 28.875 26.3333 28.375C27.2083 28.125 28.125 28.6667 28.375 29.5834C28.5833 30.4584 28.0833 31.375 27.1667 31.625C24.7917 32.2084 22.4167 32.5417 20.0833 32.5417Z" fill="url(#paint4_linear)"/>
<path id="Shape_6" d="M20.1666 40C17.7083 40 15.2083 39.375 12.7083 38.1667C11.875 37.75 11.5416 36.75 11.9583 35.9167C12.375 35.0834 13.375 34.75 14.1666 35.1667C16.1666 36.1667 18.1666 36.6667 20.0833 36.6667H20.125C22.0416 36.6667 24.0416 36.1667 25.9583 35.2084C26.7916 34.7917 27.7916 35.125 28.1666 35.9584C28.5833 36.7917 28.25 37.7917 27.4166 38.2084C25.0416 39.4167 22.625 40 20.1666 40Z" fill="url(#paint5_linear)"/>
<path id="Shape_7" d="M54.0416 11.4583H46.6666V7.91663H65.5833V11.4583H58.2083V30.4166H54.0833V11.4583H54.0416Z" fill="#58595B"/>
<path id="Shape_8" fill-rule="evenodd" clip-rule="evenodd" d="M68.9583 23.2917H82.2917C82.2955 23.2454 82.2994 23.1999 82.3032 23.1551C82.3403 22.716 82.3711 22.3519 82.3333 22.125C82.3333 20.4167 82 18.875 81.25 17.5417C80.5417 16.2083 79.5 15.2083 78.2083 14.4583C76.875 13.75 75.4167 13.375 73.75 13.375C72.0833 13.375 70.5833 13.75 69.25 14.5C67.9167 15.2083 66.875 16.25 66.125 17.5833C65.375 18.9167 65 20.375 65 22.0417C65 23.7083 65.375 25.2083 66.1667 26.5417C66.9583 27.8333 68.0417 28.875 69.4583 29.625C70.875 30.375 72.5 30.75 74.375 30.75C75.8333 30.75 77.1667 30.5 78.3333 30.0417C79.4583 29.5417 80.4583 28.875 81.2083 27.9583L79.0833 25.5C77.875 26.7083 76.3333 27.3333 74.4583 27.3333C73 27.3333 71.7917 27 70.7917 26.25C69.7917 25.5417 69.2083 24.5417 68.9583 23.2917ZM68.9167 20.625C69.125 19.375 69.6667 18.375 70.5417 17.625C71.4167 16.875 72.5 16.5 73.75 16.5C75.0417 16.5 76.125 16.875 77 17.625C77.8333 18.4167 78.375 19.375 78.5417 20.625H68.9167Z" fill="#58595B"/>
<path id="Shape_9" d="M87.4167 30.2083C86.0833 29.8333 85.0417 29.375 84.25 28.8333L85.7917 25.7917C86.5417 26.2917 87.4583 26.7083 88.5417 27C89.625 27.2917 90.6667 27.4583 91.7083 27.4583C94.0833 27.4583 95.25 26.8333 95.25 25.5833C95.25 25 94.9583 24.5833 94.3333 24.3333C93.7083 24.0833 92.75 23.875 91.4167 23.6667C90 23.4583 88.875 23.2083 88 22.9167C87.125 22.625 86.375 22.1667 85.7083 21.4583C85.0417 20.75 84.75 19.7917 84.75 18.5833C84.75 16.9583 85.4167 15.6667 86.75 14.7083C88.0833 13.75 89.9167 13.25 92.2083 13.25C93.375 13.25 94.5417 13.375 95.7083 13.6667C96.875 13.9167 97.8333 14.2917 98.5833 14.75L97.0417 17.7917C95.5833 16.9583 93.9583 16.5 92.1667 16.5C91 16.5 90.125 16.6667 89.5 17.0417C88.875 17.375 88.5833 17.8333 88.5833 18.4167C88.5833 19.0417 88.9167 19.5 89.5417 19.75C90.2083 20 91.2083 20.25 92.5417 20.5C93.9167 20.7083 95 20.9583 95.875 21.25C96.75 21.5417 97.5 22 98.125 22.6667C98.75 23.3333 99.0833 24.25 99.0833 25.4583C99.0833 27.0417 98.375 28.3333 97 29.2917C95.625 30.25 93.75 30.7083 91.375 30.7083C90.0833 30.75 88.75 30.5417 87.4167 30.2083Z" fill="#58595B"/>
<path id="Shape_10" d="M102.708 6.375H106.667V30H102.708V6.375Z" fill="#58595B"/>
<path id="Shape_11" fill-rule="evenodd" clip-rule="evenodd" d="M126.25 20.5417C126.25 18.125 125.583 16.3334 124.25 15.125C122.917 13.9167 121.042 13.3334 118.5 13.3334C117.125 13.3334 115.792 13.5 114.542 13.875C113.292 14.2084 112.208 14.75 111.333 15.4167L112.875 18.2917C113.5 17.75 114.292 17.3334 115.208 17.0417C116.167 16.75 117.083 16.5834 118.042 16.5834C119.458 16.5834 120.5 16.9167 121.208 17.5417C121.917 18.2084 122.292 19.0834 122.292 20.2917V20.5417H117.917C115.458 20.5417 113.667 21 112.542 21.9167C111.417 22.8334 110.833 24.0417 110.833 25.5834C110.833 26.5417 111.125 27.4167 111.625 28.2084C112.125 29 112.875 29.625 113.833 30.0417C114.792 30.5 115.917 30.7084 117.167 30.7084C118.417 30.7084 119.5 30.5 120.417 30.125C121.333 29.7084 122 29.1667 122.5 28.4167V30.5H126.25V20.5417ZM122.25 25.2084C121.958 26.0417 121.417 26.7084 120.625 27.1667C119.875 27.625 118.958 27.8334 117.958 27.8334C116.958 27.8334 116.167 27.625 115.583 27.2084C115 26.7917 114.708 26.2084 114.708 25.5C114.708 24 115.833 23.25 118.125 23.25H122.25V25.2084Z" fill="#58595B"/>
<path id="Shape_12" fill-rule="evenodd" clip-rule="evenodd" d="M149.167 11.4167C148.417 10.2083 147.292 9.29167 145.875 8.66667C144.458 8.04167 142.75 7.75 140.833 7.75H131.667V30H135.792V23.5833H140.833C142.75 23.5833 144.458 23.25 145.875 22.625C147.292 22 148.417 21.0833 149.167 19.875C149.917 18.6667 150.292 17.2917 150.292 15.6667C150.292 14 149.917 12.5833 149.167 11.4167ZM146.167 15.625C146.167 17.0417 145.667 18.1667 144.75 18.9167C143.792 19.7083 142.458 20.0833 140.667 20.0417H135.833V11.2083H140.667C142.458 11.2083 143.792 11.5417 144.75 12.3333C145.708 13.125 146.167 14.2083 146.167 15.625Z" fill="#58595B"/>
<path id="Shape_13" fill-rule="evenodd" clip-rule="evenodd" d="M168.75 20.5417C168.75 18.125 168.083 16.3334 166.75 15.125C165.417 13.9167 163.542 13.3334 161 13.3334C159.625 13.3334 158.292 13.5 157.042 13.875C155.792 14.2084 154.708 14.75 153.833 15.4167L155.375 18.2917C156 17.75 156.792 17.3334 157.708 17.0417C158.667 16.75 159.583 16.5834 160.542 16.5834C161.958 16.5834 163 16.9167 163.708 17.5417C164.417 18.2084 164.792 19.0834 164.792 20.2917V20.5417H160.417C157.958 20.5417 156.167 21 155.042 21.9167C153.917 22.8334 153.333 24.0417 153.333 25.5834C153.333 26.5417 153.625 27.4167 154.125 28.2084C154.625 29 155.375 29.625 156.333 30.0417C157.292 30.5 158.417 30.7084 159.667 30.7084C160.917 30.7084 162 30.5 162.917 30.125C163.833 29.7084 164.5 29.1667 165 28.4167V30.5H168.75V20.5417ZM164.75 25.2084C164.458 26.0417 163.917 26.7084 163.125 27.1667C162.375 27.625 161.458 27.8334 160.458 27.8334C159.458 27.8334 158.667 27.625 158.083 27.2084C157.5 26.7917 157.208 26.2084 157.208 25.5C157.208 24 158.333 23.25 160.625 23.25H164.75V25.2084Z" fill="#58595B"/>
<path id="Shape_14" d="M190 13.3334L182.042 31.7084C181.292 33.5417 180.417 34.8334 179.333 35.625C178.292 36.375 177 36.75 175.5 36.75C174.667 36.75 173.833 36.625 173 36.3334C172.167 36.0417 171.5 35.6667 170.958 35.2084L172.542 32.2917C172.917 32.6667 173.375 32.9584 173.875 33.1667C174.375 33.375 174.917 33.5 175.458 33.5C176.167 33.5 176.75 33.3334 177.208 32.9584C177.667 32.5834 178.083 32 178.458 31.1667L178.75 30.5L171.333 13.3334H175.458L180.792 25.9167L186.167 13.3334H190Z" fill="#58595B"/>
</g>
<defs>
<linearGradient id="paint0_linear" x1="0.134675" y1="6.68219" x2="40.0403" y2="6.68219" gradientUnits="userSpaceOnUse">
<stop offset="0.0231316" stop-color="#F1BA46"/>
<stop offset="0.5042" stop-color="#F0CF64"/>
<stop offset="1" stop-color="#DB9638"/>
</linearGradient>
<linearGradient id="paint1_linear" x1="0.0402938" y1="13.347" x2="40.0403" y2="13.347" gradientUnits="userSpaceOnUse">
<stop offset="0.0231316" stop-color="#F1BA46"/>
<stop offset="0.5042" stop-color="#F0CF64"/>
<stop offset="1" stop-color="#DB9638"/>
</linearGradient>
<linearGradient id="paint2_linear" x1="11.774" y1="18.3341" x2="28.3678" y2="18.3341" gradientUnits="userSpaceOnUse">
<stop offset="0.0231316" stop-color="#F1BA46"/>
<stop offset="0.5042" stop-color="#F0CF64"/>
<stop offset="1" stop-color="#DB9638"/>
</linearGradient>
<linearGradient id="paint3_linear" x1="11.7738" y1="25.5233" x2="28.4012" y2="25.5233" gradientUnits="userSpaceOnUse">
<stop offset="0.0231316" stop-color="#F1BA46"/>
<stop offset="0.5042" stop-color="#F0CF64"/>
<stop offset="1" stop-color="#DB9638"/>
</linearGradient>
<linearGradient id="paint4_linear" x1="11.7736" y1="32.5357" x2="28.4014" y2="32.5357" gradientUnits="userSpaceOnUse">
<stop offset="0.0231316" stop-color="#F1BA46"/>
<stop offset="0.5042" stop-color="#F0CF64"/>
<stop offset="1" stop-color="#DB9638"/>
</linearGradient>
<linearGradient id="paint5_linear" x1="11.7736" y1="40.0145" x2="28.4014" y2="40.0145" gradientUnits="userSpaceOnUse">
<stop offset="0.0231316" stop-color="#F1BA46"/>
<stop offset="0.5042" stop-color="#F0CF64"/>
<stop offset="1" stop-color="#DB9638"/>
</linearGradient>
</defs>
</svg>
