<svg width="129" height="92" viewBox="0 0 129 92" fill="none" xmlns="http://www.w3.org/2000/svg">
<g clip-path="url(#clip0)">
<path d="M51.4013 74.7515H18.2931" stroke="#414042" stroke-width="3.5" stroke-miterlimit="10" stroke-linecap="square"/>
<path d="M39.5742 27.642H1.73895" stroke="#414042" stroke-width="3.5" stroke-miterlimit="10" stroke-linecap="square"/>
<path d="M22.9958 33.1724L10.6057 44.8228C9.63505 45.7365 9.61564 47.2641 10.5572 48.202L37.2155 74.7564" stroke="#414042" stroke-width="3.5" stroke-miterlimit="10" stroke-linecap="square"/>
<path d="M46.6695 81.8192L54.4588 89.5781C55.3809 90.4966 56.8805 90.4966 57.8026 89.5781L111.212 36.3726C112.134 35.4541 112.134 33.9604 111.212 33.0419L79.7777 1.73059H56.1283L28.7905 27.3955" stroke="#414042" stroke-width="3.5" stroke-miterlimit="10" stroke-linecap="square"/>
<path d="M60.8601 8.79822L67.9554 15.8659L75.0459 8.79822" stroke="#414042" stroke-width="3.5" stroke-miterlimit="10" stroke-linecap="square"/>
<path d="M58.4966 25.2878L79.7777 46.4859" stroke="#414042" stroke-width="3.5" stroke-miterlimit="10" stroke-linecap="square"/>
<path d="M51.4013 32.3554L72.6824 53.5535" stroke="#414042" stroke-width="3.5" stroke-miterlimit="10" stroke-linecap="square"/>
<path d="M44.306 39.4182L56.1283 51.1992" stroke="#414042" stroke-width="3.5" stroke-miterlimit="10" stroke-linecap="square"/>
<path d="M37.2107 1.73059H18.2931" stroke="#414042" stroke-width="3.5" stroke-miterlimit="10" stroke-linecap="square"/>
<path d="M13.5613 1.73059H8.83429" stroke="#414042" stroke-width="3.5" stroke-miterlimit="10" stroke-linecap="square"/>
<path d="M127.382 38.0356C127.382 48.8691 118.564 57.6529 107.659 57.6529C96.7832 57.6529 87.9602 48.8691 87.9602 38.0356C87.9602 27.2021 96.7784 18.4183 107.659 18.4183C118.564 18.4183 127.382 27.1973 127.382 38.0356Z" fill="#F1BF46" stroke="#414042" stroke-width="3" stroke-miterlimit="10" stroke-linecap="square"/>
<path d="M107.664 26.7284C113.949 26.7284 119.03 31.7898 119.03 38.0308C119.03 44.2766 113.949 49.3332 107.664 49.3332C105.145 49.3332 102.821 48.5162 100.938 47.1336" stroke="#414042" stroke-width="3" stroke-miterlimit="10" stroke-linecap="square"/>
<path d="M112.876 13.6131V8.28583H102.471V13.6131" stroke="#414042" stroke-width="3.5" stroke-miterlimit="10" stroke-linecap="square"/>
<path d="M124 18.0219L120.428 22.2567" stroke="#414042" stroke-width="3" stroke-miterlimit="10" stroke-linecap="square"/>
<path d="M107.64 38.0743L98.1615 43.2227" stroke="#414042" stroke-width="3" stroke-miterlimit="10" stroke-linecap="square"/>
<path d="M109.484 38.0356C109.484 39.0363 108.678 39.8388 107.674 39.8388C106.674 39.8388 105.863 39.0363 105.863 38.0356C105.863 37.0349 106.679 36.2324 107.674 36.2324C108.673 36.2276 109.484 37.0349 109.484 38.0356Z" stroke="#414042" stroke-width="3" stroke-miterlimit="10" stroke-linecap="square"/>
</g>
<defs>
<clipPath id="clip0">
<rect width="129" height="92" fill="white"/>
</clipPath>
</defs>
</svg>
