<svg width="126" height="103" viewBox="0 0 126 103" fill="none" xmlns="http://www.w3.org/2000/svg">
<path d="M59.1081 26.4054C59.1081 26.4054 35.2834 23.0518 31.2685 24.0961C22.5628 26.3599 13.5458 39.1406 9.41209 46.6685C7.69335 49.7985 5.05585 52.7555 2.84766 54.9306" stroke="#414042" stroke-width="3.5" stroke-miterlimit="10" stroke-linecap="square"/>
<path d="M34.5789 37.5305C40.9471 35.2515 44.4575 37.4039 48.9543 36.1616C57.7104 33.7415 56.9511 33.8462 64.9523 31.6756C69.704 30.3871 72.7776 29.7864 74.7354 33.6065C76.379 36.8146 74.861 38.92 71.9701 41.0496C68.4424 43.6479 53.7767 50.0708 50.5438 51.6908C49.8475 52.0396 49.2634 52.5584 48.8386 53.2144C46.5401 56.7668 39.7983 66.7042 23.5582 62.7522" stroke="#414042" stroke-width="3.5" stroke-miterlimit="10" stroke-linecap="square"/>
<path d="M36.9953 73.9727C32.0482 73.5837 26.4529 77.7412 26.4529 77.7412" stroke="#414042" stroke-width="3.5" stroke-miterlimit="10" stroke-linecap="square"/>
<path d="M56.13 49.0765L50.7678 60.4996L42.4365 78.2463C42.1004 78.9623 42.4034 79.8178 43.1132 80.1568L86.6214 100.938C87.3311 101.277 88.1792 100.971 88.5153 100.255L123.957 24.7536C124.293 24.0376 123.99 23.1822 123.28 22.8431L79.772 2.06201C79.0622 1.72301 78.2141 2.02864 77.8781 2.74458L64.2034 31.8773" stroke="#414042" stroke-width="3.5" stroke-miterlimit="10" stroke-linecap="square"/>
<path d="M67.0341 43.8663L55.8932 67.5991C58.4548 70.6714 59.9667 74.5181 60.187 78.5354L77.0428 86.5866C78.7781 85.3049 80.7337 84.3349 82.8389 83.7251C84.5771 83.2216 86.3665 82.9819 88.1529 83.0062L110.5 35.4017C107.938 32.3286 106.425 28.482 106.208 24.4647L89.3506 16.4142C87.6154 17.6959 85.6598 18.6651 83.5554 19.2749C81.8163 19.7785 80.0269 20.0181 78.2398 19.9939L72.8828 31.4056" stroke="#414042" stroke-width="3.5" stroke-miterlimit="10" stroke-linecap="square"/>
<path d="M77.097 96.3876C80.2668 90.8178 87.0342 88.4075 92.9753 90.7518" stroke="#414042" stroke-width="3.5" stroke-miterlimit="10" stroke-linecap="square"/>
<path d="M119.447 34.3611C113.923 31.1637 111.534 24.3365 113.859 18.3428" stroke="#414042" stroke-width="3.5" stroke-miterlimit="10" stroke-linecap="square"/>
<path d="M46.9469 68.6396C52.47 71.8371 54.8594 78.6643 52.5339 84.658" stroke="#414042" stroke-width="3.5" stroke-miterlimit="10" stroke-linecap="square"/>
<path d="M89.2995 6.60571C86.1312 12.1808 79.3615 14.5933 73.4182 12.2483" stroke="#414042" stroke-width="3.5" stroke-miterlimit="10" stroke-linecap="square"/>
<path d="M49.1355 16.3861H9.69031" stroke="#414042" stroke-width="3.5" stroke-miterlimit="10" stroke-linecap="square"/>
<path d="M66.3688 8.97717H46.6461" stroke="#414042" stroke-width="3.5" stroke-miterlimit="10" stroke-linecap="square"/>
<path d="M41.7155 8.97717H36.7848" stroke="#414042" stroke-width="3.5" stroke-miterlimit="10" stroke-linecap="square"/>
<path d="M97.5556 86.5479C96.5008 85.9025 71.7257 70.553 71.7257 54.4604C71.7257 46.8786 77.8405 40.7104 85.3568 40.7104C90.8498 40.7104 95.7655 44.0565 97.8857 49.0438C100.006 44.0573 104.922 40.7104 110.415 40.7104C117.931 40.7104 124.046 46.8786 124.046 54.4604C124.046 70.553 99.2714 85.9025 98.2158 86.5479L97.8849 86.7511L97.5556 86.5479Z" fill="#F1BF46" stroke="#414042" stroke-width="3" stroke-miterlimit="10" stroke-linecap="square"/>
</svg>
