<svg width="50" height="49" viewBox="0 0 50 49" fill="none" xmlns="http://www.w3.org/2000/svg">
<path d="M36.2036 34.2245C41.4204 34.2245 45.6495 30.0204 45.6495 24.8343C45.6495 19.6483 41.4204 15.4442 36.2036 15.4442C30.9869 15.4442 26.7578 19.6483 26.7578 24.8343C26.7578 30.0204 30.9869 34.2245 36.2036 34.2245Z" fill="#F1BF46"/>
<path d="M24.959 19.2969C24.0458 17.4289 22.6715 15.8248 20.9834 14.6309" stroke="#414042" stroke-width="1.5" stroke-miterlimit="10"/>
<path d="M11.7248 12.5291C5.87182 13.5135 1.41455 18.5772 1.41455 24.6755C1.41455 31.4793 6.963 36.995 13.8071 36.995C18.7111 36.995 22.95 34.1631 24.9591 30.0545" stroke="#414042" stroke-width="1.5" stroke-miterlimit="10"/>
<path d="M14.6614 39.4313C14.7463 39.7085 14.8444 39.9837 14.955 40.2551C16.6713 44.4574 21.1614 47.0392 25.6817 46.5194C26.7708 46.3944 27.8393 46.1058 28.8383 45.6563C29.3288 45.4355 29.8029 45.1792 30.2555 44.8894C30.4692 44.7526 31.1974 44.1605 31.2651 44.1638C31.316 44.1663 33.1723 46.4053 33.2422 46.4881C33.4479 45.4326 33.6536 44.3771 33.8597 43.322C34.1882 41.6376 34.5163 39.9536 34.8449 38.2692C34.921 37.8798 34.9967 37.4905 35.0729 37.1008C33.9918 37.1221 32.9107 37.1438 31.8292 37.1652C30.1037 37.1995 28.3785 37.2338 26.653 37.268C26.2542 37.276 25.855 37.2839 25.4563 37.2919C26.1449 38.1052 26.8335 38.9186 27.5221 39.7315C27.5221 39.7315 25.2194 42.2782 21.7065 40.7879C20.5586 40.3007 19.6112 39.5534 18.9878 38.582" stroke="#414042" stroke-width="1.5" stroke-miterlimit="10"/>
<path d="M37.7079 36.9039C43.8377 36.1616 48.5861 30.9695 48.5861 24.6755C48.5861 17.8717 43.0376 12.356 36.1935 12.356C29.3495 12.356 23.801 17.8717 23.801 24.6755C23.801 28.7623 25.8029 32.3842 28.8847 34.6256" stroke="#414042" stroke-width="1.5" stroke-miterlimit="10"/>
<path d="M34.682 9.98026C34.6463 9.86108 34.608 9.7419 34.5676 9.62355C34.507 9.44666 34.441 9.27061 34.3699 9.09623C32.6536 4.89396 28.1635 2.31212 23.6432 2.83192C22.5541 2.95695 21.4856 3.2455 20.4866 3.69504C19.9961 3.91584 18.7568 4.71832 18.0598 5.18752C18.0173 5.21595 16.6552 3.53948 16.2922 3.11084C16.2224 3.02846 16.1525 2.94566 16.0827 2.86328C15.877 3.91876 15.6713 4.97383 15.4652 6.02931C15.1367 7.71373 14.8085 9.39774 14.48 11.0822C14.4043 11.4715 14.3282 11.8608 14.2524 12.2505C15.3335 12.2288 16.4146 12.2075 17.4961 12.1861C19.2217 12.1519 20.9468 12.1176 22.6723 12.0833C23.0711 12.0753 23.4703 12.0674 23.8691 12.0594C23.1804 11.2461 22.4283 10.4741 21.7397 9.66119C23.2608 8.28915 25.5706 7.78106 27.6188 8.56347C28.8652 9.03978 29.8424 9.90917 30.4633 10.9751" stroke="#414042" stroke-width="1.5" stroke-miterlimit="10" stroke-linecap="square"/>
<path d="M32.5354 28.8288C33.0949 29.9524 34.4734 30.747 36.0853 30.747C38.1933 30.747 39.9024 29.3879 39.9024 27.7114C39.9024 25.4348 38.1213 24.9289 36.0853 24.6759C33.4491 24.3484 32.2683 23.3168 32.2683 21.6403C32.2683 19.9638 33.977 18.6047 36.0853 18.6047C37.654 18.6047 39.0017 19.3575 39.5886 20.4334" stroke="#414042" stroke-miterlimit="10"/>
<path d="M36.0854 16.8338V32.5176" stroke="#414042" stroke-miterlimit="10"/>
<path d="M22.2365 24.7341C22.2365 23.684 22.3711 22.6653 22.6239 21.6939C21.2825 18.1319 17.8365 15.591 13.7847 15.591C8.56772 15.591 4.33887 19.7954 4.33887 24.9812C4.33887 30.167 8.56814 34.3714 13.7847 34.3714C17.9181 34.3714 21.4221 31.7281 22.7034 28.0523C22.4014 26.9976 22.2365 25.8853 22.2365 24.7341Z" fill="#F1BF46"/>
<path d="M18.1561 21.0273L17.7404 20.6689L18.1561 21.0273ZM18.1561 21.0273C17.9571 21.2581 17.6076 21.2853 17.3754 21.0875L18.1561 21.0273Z" fill="#414042" stroke="#414042" stroke-width="2"/>
<mask id="path-12-inside-1" fill="white">
<path d="M6.96402 23.293C6.65737 23.293 6.40918 23.5401 6.40918 23.845C6.40918 24.1498 6.65779 24.3965 6.96402 24.3965H14.4424C14.7491 24.3965 14.9977 24.1494 14.9977 23.845C14.9977 23.5405 14.7491 23.293 14.4424 23.293H6.96402Z"/>
</mask>
<path d="M6.96402 23.293C6.65737 23.293 6.40918 23.5401 6.40918 23.845C6.40918 24.1498 6.65779 24.3965 6.96402 24.3965H14.4424C14.7491 24.3965 14.9977 24.1494 14.9977 23.845C14.9977 23.5405 14.7491 23.293 14.4424 23.293H6.96402Z" fill="#414042"/>
<path d="M6.96402 21.293C5.56198 21.293 4.40918 22.4264 4.40918 23.845H8.40918C8.40918 24.6538 7.75276 25.293 6.96402 25.293V21.293ZM4.40918 23.845C4.40918 25.2665 5.56536 26.3965 6.96402 26.3965V22.3965C7.75022 22.3965 8.40918 23.0331 8.40918 23.845H4.40918ZM6.96402 26.3965H14.4424V22.3965H6.96402V26.3965ZM14.4424 26.3965C15.8415 26.3965 16.9977 25.2661 16.9977 23.845H12.9977C12.9977 23.0327 13.6567 22.3965 14.4424 22.3965V26.3965ZM16.9977 23.845C16.9977 22.4258 15.8435 21.293 14.4424 21.293V25.293C13.6547 25.293 12.9977 24.6552 12.9977 23.845H16.9977ZM14.4424 21.293H6.96402V25.293H14.4424V21.293Z" fill="#414042" mask="url(#path-12-inside-1)"/>
<mask id="path-14-inside-2" fill="white">
<path d="M6.96402 25.9087C6.65737 25.9087 6.40918 26.1558 6.40918 26.4607C6.40918 26.7655 6.65779 27.0123 6.96402 27.0123H14.4424C14.7491 27.0123 14.9977 26.7651 14.9977 26.4607C14.9977 26.1558 14.7491 25.9087 14.4424 25.9087H6.96402Z"/>
</mask>
<path d="M6.96402 25.9087C6.65737 25.9087 6.40918 26.1558 6.40918 26.4607C6.40918 26.7655 6.65779 27.0123 6.96402 27.0123H14.4424C14.7491 27.0123 14.9977 26.7651 14.9977 26.4607C14.9977 26.1558 14.7491 25.9087 14.4424 25.9087H6.96402Z" fill="#414042"/>
<path d="M6.96402 23.9087C5.56197 23.9087 4.40918 25.0421 4.40918 26.4607H8.40918C8.40918 27.2696 7.75276 27.9087 6.96402 27.9087V23.9087ZM4.40918 26.4607C4.40918 27.8822 5.56536 29.0123 6.96402 29.0123V25.0123C7.75021 25.0123 8.40918 25.6489 8.40918 26.4607H4.40918ZM6.96402 29.0123H14.4424V25.0123H6.96402V29.0123ZM14.4424 29.0123C15.8415 29.0123 16.9977 27.8818 16.9977 26.4607H12.9977C12.9977 25.6484 13.6567 25.0123 14.4424 25.0123V29.0123ZM16.9977 26.4607C16.9977 25.0401 15.8425 23.9087 14.4424 23.9087V27.9087C13.6557 27.9087 12.9977 27.2715 12.9977 26.4607H16.9977ZM14.4424 23.9087H6.96402V27.9087H14.4424V23.9087Z" fill="#414042" mask="url(#path-14-inside-2)"/>
</svg>
