<svg width="52" height="55" viewBox="0 0 52 55" fill="none" xmlns="http://www.w3.org/2000/svg">
<path d="M13.6639 46.9936C13.5829 46.9936 13.5001 46.9753 13.4227 46.9348L2.69039 41.438C1.41411 40.795 0.778669 39.3161 1.1855 37.9198L9.54703 9.72289C9.63344 9.43262 9.93405 9.26727 10.2203 9.35546C10.5065 9.44364 10.6667 9.75045 10.5803 10.0426L2.22056 38.2358C1.96495 39.1121 2.36457 40.0454 3.17102 40.4515L13.9069 45.9501C14.1733 46.0861 14.2813 46.4186 14.1481 46.6905C14.0527 46.8816 13.8619 46.9936 13.6639 46.9936Z" fill="#414042" stroke="#414042" stroke-width="0.7" stroke-miterlimit="10"/>
<path d="M16.906 13.7408C16.6072 13.7408 16.366 13.4946 16.366 13.1897V10.0959C16.366 5.1153 20.4162 1.06433 25.3953 1.06433C27.7967 1.06433 30.0486 1.99394 31.7353 3.68046C33.4329 5.37801 34.3671 7.65611 34.3671 10.0959V13.006C34.3671 13.3109 34.1259 13.5571 33.8271 13.5571C33.5283 13.5571 33.287 13.3109 33.287 13.006V10.0959C33.287 5.64991 29.82 2.16663 25.3953 2.16663C21.0121 2.16663 17.446 5.7234 17.446 10.0959V13.1897C17.446 13.4946 17.203 13.7408 16.906 13.7408Z" fill="#414042" stroke="#414042" stroke-width="0.7" stroke-miterlimit="10"/>
<path d="M16.9059 17.783C15.5162 17.783 14.3857 16.6329 14.3857 15.2183C14.3857 13.8037 15.5162 12.6536 16.9059 12.6536C18.2956 12.6536 19.4261 13.8037 19.4261 15.2183C19.4261 16.6329 18.2956 17.783 16.9059 17.783ZM16.9059 13.7578C16.1121 13.7578 15.4658 14.4136 15.4658 15.2202C15.4658 16.0267 16.1121 16.6825 16.9059 16.6825C17.6998 16.6825 18.346 16.0267 18.346 15.2202C18.346 14.4136 17.6998 13.7578 16.9059 13.7578Z" fill="#414042" stroke="#414042" stroke-width="0.7" stroke-miterlimit="10"/>
<path d="M33.827 17.7826C32.4374 17.7826 31.3069 16.6289 31.3069 15.2106C31.3069 13.7923 32.4374 12.6385 33.827 12.6385C35.2167 12.6385 36.3472 13.7923 36.3472 15.2106C36.3472 16.6289 35.2167 17.7826 33.827 17.7826ZM33.827 13.7409C33.0332 13.7409 32.387 14.4004 32.387 15.2106C32.387 16.0208 33.0332 16.6803 33.827 16.6803C34.6209 16.6803 35.2671 16.0208 35.2671 15.2106C35.2671 14.4004 34.6209 13.7409 33.827 13.7409Z" fill="#414042" stroke="#414042" stroke-width="0.7" stroke-miterlimit="10"/>
<path d="M7.67302 39.2775H3.58496C3.28614 39.2775 3.04492 39.0314 3.04492 38.7264C3.04492 38.4214 3.28614 38.1752 3.58496 38.1752H6.69736L8.08884 24.1576C8.11945 23.8545 8.38406 23.634 8.68108 23.6652C8.9781 23.6965 9.19411 23.9665 9.16351 24.2697L7.67302 39.2775Z" fill="#414042" stroke="#414042" stroke-width="0.7" stroke-miterlimit="10"/>
<path d="M10.6056 42.7681C10.4669 42.7681 10.3283 42.7148 10.2239 42.6065L6.80371 39.1158C6.5931 38.9009 6.5931 38.5518 6.80371 38.3369C7.01433 38.1219 7.35635 38.1219 7.56696 38.3369L10.9872 41.8275C11.1978 42.0424 11.1978 42.3915 10.9872 42.6065C10.881 42.7148 10.7424 42.7681 10.6056 42.7681Z" fill="#414042" stroke="#414042" stroke-width="0.7" stroke-miterlimit="10"/>
<path d="M18.2489 22.3755C18.1193 22.3755 17.9897 22.3278 17.8853 22.2322C17.6639 22.0265 17.6495 21.6792 17.8493 21.4533C18.2993 20.948 18.5532 20.2334 18.5478 19.4912C18.5424 18.749 18.2705 18.0747 17.8025 17.6393C17.5811 17.4335 17.5667 17.0863 17.7665 16.8603C17.9663 16.6344 18.3083 16.6197 18.5297 16.8236C19.9356 18.1298 19.9914 20.689 18.6486 22.1955C18.5423 22.3149 18.3947 22.3755 18.2489 22.3755Z" fill="#414042" stroke="#414042" stroke-width="0.7" stroke-miterlimit="10"/>
<path d="M18.8859 22.5593H16.5098C16.2109 22.5593 15.9697 22.3131 15.9697 22.0081C15.9697 21.7032 16.2109 21.457 16.5098 21.457H18.8859C19.1847 21.457 19.4259 21.7032 19.4259 22.0081C19.4259 22.3131 19.1829 22.5593 18.8859 22.5593Z" fill="#414042" stroke="#414042" stroke-width="0.7" stroke-miterlimit="10"/>
<path d="M18.886 34.3171H14.3857V23.8048C14.3857 23.4998 14.627 23.2537 14.9258 23.2537C15.2246 23.2537 15.4658 23.4998 15.4658 23.8048V33.2148H18.886C19.1848 33.2148 19.4261 33.461 19.4261 33.766C19.4261 34.0709 19.183 34.3171 18.886 34.3171Z" fill="#414042" stroke="#414042" stroke-width="0.7" stroke-miterlimit="10"/>
<path d="M14.9239 24.356C14.7943 24.356 14.6665 24.3101 14.562 24.2146C14.3406 24.0106 14.3226 23.6616 14.5224 23.4356L16.1065 21.6388C16.3064 21.4129 16.6484 21.3945 16.8698 21.5984C17.0912 21.8023 17.1092 22.1514 16.9094 22.3774L15.3253 24.1741C15.2191 24.2936 15.0733 24.356 14.9239 24.356Z" fill="#414042" stroke="#414042" stroke-width="0.7" stroke-miterlimit="10"/>
<path d="M21.2621 22.5593H18.886C18.5872 22.5593 18.3459 22.3131 18.3459 22.0081C18.3459 21.7032 18.5872 21.457 18.886 21.457H21.2621C21.5609 21.457 21.8022 21.7032 21.8022 22.0081C21.8022 22.3131 21.5591 22.5593 21.2621 22.5593Z" fill="#414042" stroke="#414042" stroke-width="0.7" stroke-miterlimit="10"/>
<path d="M23.3863 34.3171H18.886C18.5872 34.3171 18.3459 34.0709 18.3459 33.766C18.3459 33.461 18.5872 33.2148 18.886 33.2148H22.3062V23.8048C22.3062 23.4998 22.5474 23.2537 22.8462 23.2537C23.1451 23.2537 23.3863 23.4998 23.3863 23.8048V34.3171Z" fill="#414042" stroke="#414042" stroke-width="0.7" stroke-miterlimit="10"/>
<path d="M22.8461 24.356C22.6985 24.356 22.5509 24.2954 22.4447 24.1741L20.8606 22.3774C20.6608 22.1514 20.6788 21.8023 20.9002 21.5984C21.1216 21.3945 21.4636 21.4129 21.6634 21.6388L23.2475 23.4356C23.4473 23.6616 23.4293 24.0106 23.2079 24.2146C23.1035 24.3082 22.9739 24.356 22.8461 24.356Z" fill="#414042" stroke="#414042" stroke-width="0.7" stroke-miterlimit="10"/>
<path d="M20.8661 26.4173H16.7258C16.427 26.4173 16.1858 26.1711 16.1858 25.8662C16.1858 25.5612 16.427 25.315 16.7258 25.315H20.8661C21.1649 25.315 21.4061 25.5612 21.4061 25.8662C21.4061 26.1711 21.1631 26.4173 20.8661 26.4173Z" fill="#414042" stroke="#414042" stroke-width="0.7" stroke-miterlimit="10"/>
<path d="M20.8661 30.2754H16.7258C16.427 30.2754 16.1858 30.0292 16.1858 29.7242C16.1858 29.4193 16.427 29.1731 16.7258 29.1731H20.8661C21.1649 29.1731 21.4061 29.4193 21.4061 29.7242C21.4061 30.0292 21.1631 30.2754 20.8661 30.2754Z" fill="#414042" stroke="#414042" stroke-width="0.7" stroke-miterlimit="10"/>
<path d="M40.1923 47.3611H14.8251C13.4462 47.3611 12.3193 46.2974 12.2005 44.8883L9.35454 10.9832C9.29153 10.2263 9.54175 9.47307 10.044 8.91641C10.5408 8.36342 11.2465 8.04742 11.9791 8.04742H37.3463C38.7252 8.04742 39.8521 9.11115 39.9709 10.5203L40.8206 20.6431C40.8458 20.9462 40.6261 21.2126 40.3291 21.2402C40.0321 21.2659 39.7711 21.0417 39.7441 20.7386L38.8944 10.6158C38.8242 9.78172 38.1582 9.15156 37.3463 9.15156H11.9791C11.5417 9.15156 11.1367 9.33345 10.8396 9.66414C10.5372 10.0003 10.3932 10.4357 10.431 10.8914L13.277 44.7964C13.3472 45.6305 14.0132 46.2606 14.8251 46.2606H40.1923C40.6297 46.2606 41.0348 46.0787 41.3318 45.748C41.6342 45.4118 41.7782 44.9764 41.7404 44.5208L40.2355 26.5955C40.2103 26.2924 40.4299 26.026 40.7269 25.9984C41.0258 25.9727 41.285 26.1969 41.312 26.5L42.8169 44.4253C42.8799 45.1822 42.6297 45.9354 42.1274 46.4921C41.6306 47.0433 40.925 47.3611 40.1923 47.3611Z" fill="#414042" stroke="#414042" stroke-width="0.7" stroke-miterlimit="10"/>
<path d="M40.5901 24.8998C40.3129 24.8998 40.0771 24.683 40.0519 24.3964L39.9295 22.9322C39.9043 22.6291 40.1239 22.3627 40.4209 22.3351C40.7215 22.3094 40.9789 22.5336 41.0059 22.8367L41.1283 24.3009C41.1535 24.604 40.9339 24.8704 40.6369 24.898C40.6207 24.8998 40.6045 24.8998 40.5901 24.8998Z" fill="#414042" stroke="#414042" stroke-width="0.7" stroke-miterlimit="10"/>
<path d="M41.1911 53.7857C51.837 49.1743 50.6957 34.4366 50.6957 34.4366C43.5258 35.3037 41.1911 31.3483 41.1911 31.3483H41.1065C41.1065 31.3483 38.7717 35.3055 31.5911 34.4366C31.5911 34.4366 30.448 49.1743 41.1065 53.7857H41.1911Z" fill="#F1BF46" stroke="#414042" stroke-width="1.5" stroke-miterlimit="10" stroke-linecap="square"/>
<path d="M37.2148 41.9745L40.8277 44.9709L45.4594 38.8641" stroke="#414042" stroke-width="1.5" stroke-miterlimit="10" stroke-linecap="square"/>
</svg>
