<svg width="116" height="122" viewBox="0 0 116 122" fill="none" xmlns="http://www.w3.org/2000/svg">
<path d="M29.8735 105.016C29.6889 105.016 29.5001 104.975 29.3236 104.883L4.85397 92.4521C1.94404 90.9979 0.495239 87.6533 1.4228 84.4956L20.4871 20.7272C20.6841 20.0707 21.3695 19.6968 22.0221 19.8962C22.6747 20.0956 23.04 20.7895 22.8429 21.4501L3.78275 85.2102C3.19995 87.1921 4.11109 89.3028 5.9498 90.221L30.4276 102.656C31.0351 102.964 31.2813 103.716 30.9776 104.331C30.7601 104.763 30.325 105.016 29.8735 105.016Z" fill="#414042" stroke="#414042" stroke-width="0.7" stroke-miterlimit="10"/>
<path d="M37.2655 29.8138C36.5842 29.8138 36.0342 29.2571 36.0342 28.5674V21.5706C36.0342 10.3069 45.2688 1.14544 56.6212 1.14544C62.0962 1.14544 67.2307 3.24779 71.0764 7.06193C74.9467 10.901 77.0768 16.053 77.0768 21.5706V28.1519C77.0768 28.8416 76.5268 29.3983 75.8455 29.3983C75.1642 29.3983 74.6142 28.8416 74.6142 28.1519V21.5706C74.6142 11.5159 66.7094 3.63834 56.6212 3.63834C46.6273 3.63834 38.4967 11.6821 38.4967 21.5706V28.5674C38.4967 29.2571 37.9427 29.8138 37.2655 29.8138Z" fill="#414042" stroke="#414042" stroke-width="0.7" stroke-miterlimit="10"/>
<path d="M37.2655 38.9548C34.097 38.9548 31.5195 36.3539 31.5195 33.1546C31.5195 29.9554 34.097 27.3545 37.2655 27.3545C40.434 27.3545 43.0115 29.9554 43.0115 33.1546C43.0115 36.3539 40.434 38.9548 37.2655 38.9548ZM37.2655 29.8515C35.4555 29.8515 33.9821 31.3348 33.9821 33.1588C33.9821 34.9828 35.4555 36.466 37.2655 36.466C39.0755 36.466 40.5489 34.9828 40.5489 33.1588C40.5489 31.3348 39.0755 29.8515 37.2655 29.8515Z" fill="#414042" stroke="#414042" stroke-width="0.7" stroke-miterlimit="10"/>
<path d="M75.8456 38.9545C72.6771 38.9545 70.0996 36.3452 70.0996 33.1377C70.0996 29.9302 72.6771 27.3209 75.8456 27.3209C79.0141 27.3209 81.5915 29.9302 81.5915 33.1377C81.5915 36.3452 79.0141 38.9545 75.8456 38.9545ZM75.8456 29.8138C74.0356 29.8138 72.5622 31.3054 72.5622 33.1377C72.5622 34.97 74.0356 36.4616 75.8456 36.4616C77.6556 36.4616 79.129 34.97 79.129 33.1377C79.129 31.3054 77.6556 29.8138 75.8456 29.8138Z" fill="#414042" stroke="#414042" stroke-width="0.7" stroke-miterlimit="10"/>
<path d="M16.2147 87.5661H6.89388C6.21257 87.5661 5.6626 87.0093 5.6626 86.3196C5.6626 85.6299 6.21257 85.0732 6.89388 85.0732H13.9901L17.1627 53.3718C17.2325 52.6862 17.8358 52.1877 18.513 52.2583C19.1902 52.3289 19.6828 52.9397 19.613 53.6252L16.2147 87.5661Z" fill="#414042" stroke="#414042" stroke-width="0.7" stroke-miterlimit="10"/>
<path d="M22.9004 95.4602C22.5844 95.4602 22.2684 95.3397 22.0303 95.0946L14.2322 87.2004C13.752 86.7143 13.752 85.9249 14.2322 85.4388C14.7124 84.9527 15.4922 84.9527 15.9724 85.4388L23.7705 93.3329C24.2507 93.8191 24.2507 94.6085 23.7705 95.0946C23.5284 95.3397 23.2123 95.4602 22.9004 95.4602Z" fill="#414042" stroke="#414042" stroke-width="0.7" stroke-miterlimit="10"/>
<path d="M40.3271 49.3415C40.0316 49.3415 39.7361 49.2335 39.498 49.0174C38.9932 48.5521 38.9604 47.7668 39.4159 47.2558C40.442 46.1132 41.0207 44.497 41.0084 42.8184C40.9961 41.1399 40.3763 39.615 39.3092 38.6303C38.8044 38.165 38.7716 37.3797 39.2271 36.8687C39.6827 36.3577 40.4625 36.3244 40.9673 36.7856C44.1728 39.7397 44.3 45.5274 41.2382 48.9343C40.9961 49.2044 40.6595 49.3415 40.3271 49.3415Z" fill="#414042" stroke="#414042" stroke-width="0.7" stroke-miterlimit="10"/>
<path d="M41.7802 49.757H36.3626C35.6813 49.757 35.1313 49.2003 35.1313 48.5106C35.1313 47.8209 35.6813 47.2641 36.3626 47.2641H41.7802C42.4615 47.2641 43.0115 47.8209 43.0115 48.5106C43.0115 49.2003 42.4574 49.757 41.7802 49.757Z" fill="#414042" stroke="#414042" stroke-width="0.7" stroke-miterlimit="10"/>
<path d="M41.7802 76.3479H31.5195V52.574C31.5195 51.8843 32.0695 51.3275 32.7508 51.3275C33.4321 51.3275 33.9821 51.8843 33.9821 52.574V73.855H41.7802C42.4615 73.855 43.0115 74.4118 43.0115 75.1015C43.0115 75.7912 42.4574 76.3479 41.7802 76.3479Z" fill="#414042" stroke="#414042" stroke-width="0.7" stroke-miterlimit="10"/>
<path d="M32.7466 53.8204C32.4511 53.8204 32.1597 53.7166 31.9216 53.5005C31.4168 53.0393 31.3758 52.2499 31.8313 51.7389L35.4431 47.6754C35.8987 47.1644 36.6785 47.1229 37.1833 47.584C37.6881 48.0452 37.7292 48.8346 37.2736 49.3457L33.6618 53.4091C33.4197 53.6792 33.0872 53.8204 32.7466 53.8204Z" fill="#414042" stroke="#414042" stroke-width="0.7" stroke-miterlimit="10"/>
<path d="M47.1977 49.757H41.7801C41.0988 49.757 40.5488 49.2003 40.5488 48.5106C40.5488 47.8209 41.0988 47.2641 41.7801 47.2641H47.1977C47.879 47.2641 48.429 47.8209 48.429 48.5106C48.429 49.2003 47.8749 49.757 47.1977 49.757Z" fill="#414042" stroke="#414042" stroke-width="0.7" stroke-miterlimit="10"/>
<path d="M52.0408 76.3479H41.7801C41.0988 76.3479 40.5488 75.7912 40.5488 75.1015C40.5488 74.4118 41.0988 73.855 41.7801 73.855H49.5782V52.574C49.5782 51.8843 50.1282 51.3275 50.8095 51.3275C51.4908 51.3275 52.0408 51.8843 52.0408 52.574V76.3479Z" fill="#414042" stroke="#414042" stroke-width="0.7" stroke-miterlimit="10"/>
<path d="M50.8095 53.8204C50.473 53.8204 50.1364 53.6833 49.8943 53.4091L46.2825 49.3457C45.8269 48.8346 45.868 48.0452 46.3728 47.584C46.8776 47.1229 47.6574 47.1644 48.113 47.6754L51.7248 51.7389C52.1803 52.2499 52.1393 53.0393 51.6345 53.5005C51.3964 53.7124 51.1009 53.8204 50.8095 53.8204Z" fill="#414042" stroke="#414042" stroke-width="0.7" stroke-miterlimit="10"/>
<path d="M46.2946 58.4822H36.8548C36.1735 58.4822 35.6235 57.9254 35.6235 57.2357C35.6235 56.546 36.1735 55.9893 36.8548 55.9893H46.2946C46.9759 55.9893 47.5259 56.546 47.5259 57.2357C47.5259 57.9254 46.9718 58.4822 46.2946 58.4822Z" fill="#414042" stroke="#414042" stroke-width="0.7" stroke-miterlimit="10"/>
<path d="M46.2946 67.2074H36.8548C36.1735 67.2074 35.6235 66.6506 35.6235 65.9609C35.6235 65.2712 36.1735 64.7145 36.8548 64.7145H46.2946C46.9759 64.7145 47.5259 65.2712 47.5259 65.9609C47.5259 66.6506 46.9718 67.2074 46.2946 67.2074Z" fill="#414042" stroke="#414042" stroke-width="0.7" stroke-miterlimit="10"/>
<path d="M90.3583 105.847H32.521C29.3772 105.847 26.8079 103.442 26.537 100.255L20.0482 23.5774C19.9045 21.8656 20.475 20.1621 21.6201 18.9032C22.7529 17.6526 24.3618 16.938 26.0322 16.938H83.8695C87.0133 16.938 89.5826 19.3436 89.8535 22.5304L91.7907 45.4235C91.8482 46.1091 91.3474 46.7115 90.6702 46.7739C89.993 46.832 89.3979 46.3251 89.3363 45.6396L87.3991 22.7464C87.2391 20.8601 85.7205 19.435 83.8695 19.435H26.0322C25.0349 19.435 24.1114 19.8464 23.4342 20.5942C22.7447 21.3546 22.4163 22.3393 22.5025 23.3697L28.9914 100.047C29.1514 101.933 30.67 103.359 32.521 103.359H90.3583C91.3556 103.359 92.2791 102.947 92.9563 102.199C93.6458 101.439 93.9742 100.454 93.888 99.424L90.4568 58.8852C90.3994 58.1997 90.9001 57.5972 91.5773 57.5349C92.2586 57.4767 92.8496 57.9836 92.9112 58.6692L96.3423 99.2079C96.486 100.92 95.9155 102.623 94.7704 103.882C93.6376 105.129 92.0287 105.847 90.3583 105.847Z" fill="#414042" stroke="#414042" stroke-width="0.7" stroke-miterlimit="10"/>
<path d="M91.2651 55.0503C90.6331 55.0503 90.0954 54.56 90.038 53.9119L89.7589 50.6005C89.7014 49.9149 90.2021 49.3125 90.8793 49.2501C91.5648 49.192 92.1517 49.6989 92.2132 50.3844L92.4923 53.6958C92.5498 54.3814 92.0491 54.9838 91.3719 55.0462C91.3349 55.0503 91.298 55.0503 91.2651 55.0503Z" fill="#414042" stroke="#414042" stroke-width="0.7" stroke-miterlimit="10"/>
<path d="M92.6358 120.377C116.908 109.948 114.306 76.618 114.306 76.618C97.9591 78.5791 92.6358 69.6338 92.6358 69.6338H92.4429C92.4429 69.6338 87.1197 78.5833 70.7478 76.618C70.7478 76.618 68.1416 109.948 92.4429 120.377H92.6358Z" fill="#F1BF46" stroke="#414042" stroke-width="3" stroke-miterlimit="10" stroke-linecap="square"/>
<path d="M83.5693 93.6653L91.8066 100.442L102.367 86.6312" stroke="#414042" stroke-width="3" stroke-miterlimit="10" stroke-linecap="square"/>
</svg>
