<svg width="52" height="43" viewBox="0 0 52 43" fill="none" xmlns="http://www.w3.org/2000/svg">
<path d="M24.2168 11.1441C24.2168 11.1441 14.4175 9.76193 12.7661 10.1923C9.1854 11.1253 5.47664 16.3925 3.77642 19.495C3.06949 20.7849 1.98466 22.0035 1.07642 22.9" stroke="#414042" stroke-width="1.5" stroke-miterlimit="10" stroke-linecap="square"/>
<path d="M14.1276 15.729C16.7469 14.7897 18.1908 15.6768 20.0404 15.1648C23.6418 14.1674 23.3295 14.2106 26.6204 13.316C28.5749 12.785 29.8391 12.5374 30.6443 14.1118C31.3203 15.4339 30.696 16.3016 29.5069 17.1792C28.056 18.2501 22.0238 20.8971 20.6941 21.5647C20.4077 21.7085 20.1675 21.9223 19.9927 22.1927C19.0474 23.6567 16.2744 27.7521 9.59473 26.1234" stroke="#414042" stroke-width="1.5" stroke-miterlimit="10" stroke-linecap="square"/>
<path d="M15.1216 30.7477C13.0868 30.5873 10.7854 32.3007 10.7854 32.3007" stroke="#414042" stroke-width="1.5" stroke-miterlimit="10" stroke-linecap="square"/>
<path d="M22.9919 20.4873L20.7863 25.1951L17.3596 32.5089C17.2214 32.804 17.346 33.1565 17.6379 33.2962L35.5332 41.8606C35.8251 42.0003 36.174 41.8744 36.3122 41.5793L50.8896 10.4633C51.0278 10.1682 50.9032 9.81566 50.6113 9.67595L32.716 1.11157C32.4241 0.971852 32.0753 1.09781 31.937 1.39287L26.3125 13.3991" stroke="#414042" stroke-width="1.5" stroke-miterlimit="10" stroke-linecap="square"/>
<path d="M27.4769 18.3401L22.8945 28.1209C23.9481 29.3871 24.57 30.9724 24.6606 32.628L31.5935 35.9461C32.3073 35.4179 33.1116 35.0181 33.9775 34.7668C34.6925 34.5593 35.4285 34.4605 36.1632 34.4705L45.3549 14.8516C44.301 13.5851 43.6788 11.9998 43.5894 10.3442L36.6559 7.02643C35.9421 7.55465 35.1378 7.9541 34.2722 8.20539C33.5569 8.41293 32.8209 8.5117 32.0859 8.5017L29.8825 13.2048" stroke="#414042" stroke-width="1.5" stroke-miterlimit="10" stroke-linecap="square"/>
<path d="M31.6157 39.9853C32.9195 37.6899 35.703 36.6966 38.1466 37.6627" stroke="#414042" stroke-width="1.5" stroke-miterlimit="10" stroke-linecap="square"/>
<path d="M49.0344 14.4228C46.7627 13.105 45.7799 10.2914 46.7361 7.82126" stroke="#414042" stroke-width="1.5" stroke-miterlimit="10" stroke-linecap="square"/>
<path d="M19.2148 28.5497C21.4865 29.8675 22.4693 32.6811 21.5128 35.1513" stroke="#414042" stroke-width="1.5" stroke-miterlimit="10" stroke-linecap="square"/>
<path d="M36.6347 2.9841C35.3315 5.28171 32.5471 6.27596 30.1025 5.30953" stroke="#414042" stroke-width="1.5" stroke-miterlimit="10" stroke-linecap="square"/>
<path d="M20.115 7.01486H3.89087" stroke="#414042" stroke-width="1.5" stroke-miterlimit="10" stroke-linecap="square"/>
<path d="M27.2031 3.96149H19.0911" stroke="#414042" stroke-width="1.5" stroke-miterlimit="10" stroke-linecap="square"/>
<path d="M17.0629 3.96149H15.0349" stroke="#414042" stroke-width="1.5" stroke-miterlimit="10" stroke-linecap="square"/>
<path d="M40.0305 35.9302C39.5967 35.6642 29.4065 29.3383 29.4065 22.7062C29.4065 19.5815 31.9216 17.0395 35.0131 17.0395C37.2724 17.0395 39.2942 18.4185 40.1663 20.4739C41.0384 18.4188 43.0602 17.0395 45.3195 17.0395C48.411 17.0395 50.9261 19.5815 50.9261 22.7062C50.9261 29.3383 40.7362 35.6642 40.3021 35.9302L40.166 36.0139L40.0305 35.9302Z" fill="#F1BF46" stroke="#414042" stroke-width="1.5" stroke-miterlimit="10" stroke-linecap="square"/>
</svg>
