<svg width="129" height="123" viewBox="0 0 129 123" fill="none" xmlns="http://www.w3.org/2000/svg">
<path d="M94.1236 86.3027C107.918 86.3027 119.1 75.1864 119.1 61.4737C119.1 47.7609 107.918 36.6446 94.1236 36.6446C80.3297 36.6446 69.1475 47.7609 69.1475 61.4737C69.1475 75.1864 80.3297 86.3027 94.1236 86.3027Z" fill="#F1BF46"/>
<path d="M64.3915 46.8316C61.9768 41.8923 58.343 37.6508 53.8794 34.4939" stroke="#414042" stroke-width="3" stroke-miterlimit="10"/>
<path d="M29.3981 28.9365C13.9219 31.5394 2.13623 44.9286 2.13623 61.0534C2.13623 79.0436 16.8072 93.6281 34.9039 93.6281C47.8708 93.6281 59.0793 86.1401 64.3915 75.2764" stroke="#414042" stroke-width="3" stroke-miterlimit="10"/>
<path d="M37.1631 100.07C37.3878 100.803 37.6469 101.531 37.9395 102.248C42.4775 113.36 54.35 120.187 66.3025 118.812C69.1822 118.482 72.0074 117.719 74.649 116.53C75.946 115.946 77.1995 115.268 78.3963 114.502C78.9613 114.14 80.8867 112.575 81.0658 112.584C81.2003 112.59 86.1088 118.51 86.2935 118.729C86.8374 115.938 87.3813 113.148 87.9263 110.358C88.795 105.904 89.6625 101.451 90.5312 96.9973C90.7326 95.9678 90.9328 94.9384 91.1341 93.9079C88.2755 93.9643 85.417 94.0218 82.5573 94.0781C77.9948 94.1688 73.4333 94.2595 68.8708 94.3502C67.8163 94.3712 66.7608 94.3922 65.7063 94.4132C67.5271 96.5638 69.3479 98.7145 71.1687 100.864C71.1687 100.864 65.0801 107.598 55.7915 103.657C52.7561 102.369 50.2512 100.393 48.6029 97.8244" stroke="#414042" stroke-width="3" stroke-miterlimit="10"/>
<path d="M98.1015 93.3871C114.31 91.4244 126.865 77.6957 126.865 61.0535C126.865 43.0633 112.194 28.4788 94.0973 28.4788C76.0005 28.4788 61.3296 43.0633 61.3296 61.0535C61.3296 71.8597 66.6229 81.4364 74.7715 87.3631" stroke="#414042" stroke-width="3" stroke-miterlimit="10"/>
<path d="M90.1009 22.1971C90.0063 21.882 89.9051 21.5668 89.7983 21.2539C89.6382 20.7862 89.4635 20.3207 89.2756 19.8596C84.7375 8.74816 72.865 1.92141 60.9125 3.29583C58.0328 3.62644 55.2076 4.38939 52.566 5.57804C51.2691 6.16187 47.9923 8.28375 46.1493 9.52438C46.0369 9.59957 42.4354 5.16671 41.4755 4.03334C41.2908 3.81552 41.1062 3.59658 40.9215 3.37875C40.3776 6.16961 39.8337 8.95935 39.2887 11.7502C38.42 16.2041 37.5525 20.6568 36.6838 25.1107C36.4836 26.1401 36.2822 27.1695 36.082 28.2001C38.9406 28.1426 41.7991 28.0862 44.6588 28.0298C49.2214 27.9391 53.7828 27.8485 58.3454 27.7578C59.3998 27.7368 60.4554 27.7158 61.5098 27.6948C59.689 25.5441 57.7002 23.503 55.8794 21.3534C59.9014 17.7255 66.009 16.3821 71.4246 18.4509C74.7203 19.7103 77.3041 22.0091 78.9458 24.8276" stroke="#414042" stroke-width="3" stroke-miterlimit="10" stroke-linecap="square"/>
<path d="M84.4246 72.0355C85.9039 75.0066 89.5488 77.1075 93.8111 77.1075C99.3847 77.1075 103.904 73.5139 103.904 69.081C103.904 63.0614 99.1945 61.7235 93.8111 61.0545C86.8404 60.1888 83.7183 57.4609 83.7183 53.0281C83.7183 48.5952 88.2363 45.0016 93.8111 45.0016C97.9587 45.0016 101.522 46.9919 103.074 49.8369" stroke="#414042" stroke-width="3" stroke-miterlimit="10"/>
<path d="M93.8115 40.3189V81.7891" stroke="#414042" stroke-width="3" stroke-miterlimit="10"/>
<path d="M57.1927 61.2083C57.1927 58.4318 57.5486 55.7383 58.2171 53.1697C54.67 43.7511 45.5583 37.0327 34.8448 37.0327C21.0504 37.0327 9.86865 48.1497 9.86865 61.8618C9.86865 75.5739 21.0515 86.6908 34.8448 86.6908C45.7741 86.6908 55.0393 79.7015 58.4273 69.9822C57.6287 67.1936 57.1927 64.2524 57.1927 61.2083Z" fill="#F1BF46"/>
<path d="M46.2281 74.3155C46.842 73.7925 46.9143 72.8747 46.3882 72.2633C45.8621 71.6529 44.9389 71.581 44.325 72.104C43.1003 73.1423 41.7056 73.9473 40.2129 74.4946C38.7235 75.0397 37.1352 75.3261 35.5168 75.3261C31.7685 75.3261 28.3738 73.8157 25.9168 71.3732C23.4598 68.9317 21.9404 65.5571 21.9404 61.8297C21.9404 58.1034 23.4598 54.7287 25.9168 52.2861C28.3727 49.8436 31.7674 48.3332 35.5168 48.3332C37.1385 48.3332 38.7302 48.6196 40.2218 49.1669C41.7167 49.7153 43.1126 50.5236 44.3394 51.5663C44.9534 52.0893 45.8777 52.0174 46.4038 51.4071C46.9299 50.7967 46.8576 49.8779 46.2436 49.3549C44.7465 48.0822 43.047 47.097 41.2317 46.4313C39.4132 45.7646 37.48 45.4152 35.518 45.4152C30.9587 45.4152 26.8311 47.2529 23.8435 50.2229C20.8559 53.1928 19.0073 57.2973 19.0073 61.8297C19.0073 66.362 20.8559 70.4665 23.8435 73.4364C26.8311 76.4064 30.9598 78.2441 35.518 78.2441C37.4767 78.2441 39.4076 77.8958 41.2239 77.2313C43.0336 76.5668 44.7309 75.5838 46.2281 74.3155Z" fill="#414042"/>
<path d="M16.8104 57.3979C15.9995 57.3979 15.3433 58.0514 15.3433 58.8575C15.3433 59.6635 16.0006 60.3159 16.8104 60.3159H36.5844C37.3953 60.3159 38.0526 59.6624 38.0526 58.8575C38.0526 58.0525 37.3953 57.3979 36.5844 57.3979H16.8104Z" fill="#414042"/>
<path d="M16.8104 64.3142C15.9995 64.3142 15.3433 64.9677 15.3433 65.7738C15.3433 66.5799 16.0006 67.2322 16.8104 67.2322H36.5844C37.3953 67.2322 38.0526 66.5787 38.0526 65.7738C38.0526 64.9677 37.3953 64.3142 36.5844 64.3142H16.8104Z" fill="#414042"/>
</svg>
