<svg width="52" height="38" viewBox="0 0 52 38" fill="none" xmlns="http://www.w3.org/2000/svg">
<path d="M20.852 30.4712H7.83984" stroke="#414042" stroke-width="1.5" stroke-miterlimit="10" stroke-linecap="square"/>
<path d="M16.2037 11.6756H1.33374" stroke="#414042" stroke-width="1.5" stroke-miterlimit="10" stroke-linecap="square"/>
<path d="M9.68808 13.8821L4.81854 18.5304C4.43707 18.8949 4.42944 19.5044 4.79947 19.8785L15.2767 30.4731" stroke="#414042" stroke-width="1.5" stroke-miterlimit="10" stroke-linecap="square"/>
<path d="M18.9921 33.291L22.0535 36.3867C22.4159 36.7531 23.0052 36.7531 23.3676 36.3867L44.3583 15.1589C44.7207 14.7924 44.7207 14.1965 44.3583 13.83L32.0042 1.33752H22.7096L11.9653 11.5772" stroke="#414042" stroke-width="1.5" stroke-miterlimit="10" stroke-linecap="square"/>
<path d="M24.5693 4.15735L27.3579 6.97717L30.1446 4.15735" stroke="#414042" stroke-width="1.5" stroke-miterlimit="10" stroke-linecap="square"/>
<path d="M23.6406 10.7363L32.0045 19.1938" stroke="#414042" stroke-width="1.5" stroke-miterlimit="10" stroke-linecap="square"/>
<path d="M20.8518 13.5561L29.2157 22.0137" stroke="#414042" stroke-width="1.5" stroke-miterlimit="10" stroke-linecap="square"/>
<path d="M18.0635 16.374L22.7098 21.0743" stroke="#414042" stroke-width="1.5" stroke-miterlimit="10" stroke-linecap="square"/>
<path d="M15.2748 1.33752H7.83984" stroke="#414042" stroke-width="1.5" stroke-miterlimit="10" stroke-linecap="square"/>
<path d="M5.9801 1.33752H4.12231" stroke="#414042" stroke-width="1.5" stroke-miterlimit="10" stroke-linecap="square"/>
<path d="M50.7138 15.8224C50.7138 20.1447 47.2481 23.6492 42.9623 23.6492C38.6878 23.6492 35.2202 20.1447 35.2202 15.8224C35.2202 11.5001 38.6859 7.99554 42.9623 7.99554C47.2481 7.99554 50.7138 11.4981 50.7138 15.8224Z" fill="#F1BF46" stroke="#414042" stroke-width="1.5" stroke-miterlimit="10" stroke-linecap="square"/>
<path d="M42.9642 11.3111C45.4342 11.3111 47.4313 13.3305 47.4313 15.8205C47.4313 18.3124 45.4342 20.3299 42.9642 20.3299C41.9743 20.3299 41.0606 20.0039 40.3206 19.4523" stroke="#414042" stroke-width="1.5" stroke-miterlimit="10" stroke-linecap="square"/>
<path d="M45.0128 6.07839V3.95291H40.9233V6.07839" stroke="#414042" stroke-width="1.5" stroke-miterlimit="10" stroke-linecap="square"/>
<path d="M49.3845 7.8374L47.9807 9.52698" stroke="#414042" stroke-width="1.5" stroke-miterlimit="10" stroke-linecap="square"/>
<path d="M42.9546 15.8378L39.2295 17.8919" stroke="#414042" stroke-width="1.5" stroke-miterlimit="10" stroke-linecap="square"/>
<path d="M43.6795 15.8224C43.6795 16.2216 43.3629 16.5418 42.968 16.5418C42.5751 16.5418 42.2566 16.2216 42.2566 15.8224C42.2566 15.4231 42.577 15.103 42.968 15.103C43.361 15.101 43.6795 15.4231 43.6795 15.8224Z" stroke="#414042" stroke-width="1.5" stroke-miterlimit="10" stroke-linecap="square"/>
</svg>
