<svg width="52" height="41" viewBox="0 0 52 41" fill="none" xmlns="http://www.w3.org/2000/svg">
<path d="M1.42129 35.7604H50.5783C50.7684 35.7604 50.9227 35.9403 50.9227 36.162V37.3866C50.9227 38.5435 50.1181 39.4818 49.1259 39.4818H2.87417C1.88201 39.4818 1.07742 38.5435 1.0769 37.3866V36.1626C1.0769 35.9403 1.23116 35.7604 1.42129 35.7604Z" stroke="#414042" stroke-width="1.5" stroke-miterlimit="10" stroke-linecap="square"/>
<path d="M25.2449 3.97253H26.7552" stroke="#414042" stroke-width="2" stroke-miterlimit="10" stroke-linecap="square"/>
<path d="M5.86035 6.73175H46.1397" stroke="#414042" stroke-width="1.5" stroke-miterlimit="10" stroke-linecap="square"/>
<path d="M1.32861 35.7808L5.85995 29.8888V5.34649C5.85995 2.99546 7.49424 1.08966 9.51034 1.08966H42.4889C44.505 1.08966 46.1392 2.99546 46.1392 5.34649V29.8888L50.6706 35.7808" stroke="#414042" stroke-width="1.5" stroke-miterlimit="10" stroke-linecap="square"/>
<path d="M5.86035 29.9091H46.1397" stroke="#414042" stroke-width="1.5" stroke-miterlimit="10" stroke-linecap="square"/>
<path d="M25.2449 33.0215H26.2519" stroke="#414042" stroke-width="1.5" stroke-miterlimit="10" stroke-linecap="square"/>
<path d="M28.7693 33.0215H29.7763" stroke="#414042" stroke-width="1.5" stroke-miterlimit="10" stroke-linecap="square"/>
<path d="M18.1958 33.0215H19.2028" stroke="#414042" stroke-width="1.5" stroke-miterlimit="10" stroke-linecap="square"/>
<path d="M21.72 33.0215H22.727" stroke="#414042" stroke-width="1.5" stroke-miterlimit="10" stroke-linecap="square"/>
<path d="M14.6714 33.0215H15.6784" stroke="#414042" stroke-width="1.5" stroke-miterlimit="10" stroke-linecap="square"/>
<path d="M7.62231 33.0215H8.62933" stroke="#414042" stroke-width="1.5" stroke-miterlimit="10" stroke-linecap="square"/>
<path d="M11.1465 33.0215H12.1535" stroke="#414042" stroke-width="1.5" stroke-miterlimit="10" stroke-linecap="square"/>
<path d="M39.8459 33.0215H40.853" stroke="#414042" stroke-width="1.5" stroke-miterlimit="10" stroke-linecap="square"/>
<path d="M43.3708 33.0215H44.3779" stroke="#414042" stroke-width="1.5" stroke-miterlimit="10" stroke-linecap="square"/>
<path d="M36.3215 33.0215H37.3286" stroke="#414042" stroke-width="1.5" stroke-miterlimit="10" stroke-linecap="square"/>
<path d="M33.5521 26.6952H19.1653C18.2859 26.6952 17.573 25.8639 17.573 24.8384V13.0874C17.573 12.0619 18.2859 11.2307 19.1653 11.2307H33.5521C34.4315 11.2307 35.1444 12.0619 35.1444 13.0874V24.8384C35.1444 25.8639 34.4315 26.6952 33.5521 26.6952Z" fill="#F1BF46" stroke="#414042" stroke-width="1.5" stroke-miterlimit="10" stroke-linecap="square"/>
<path d="M35.1443 17.2229H32.05C31.4396 17.2229 30.9451 17.7996 30.9451 18.5114V19.4138C30.9451 20.1255 31.4396 20.7022 32.05 20.7022H35.1443" stroke="#414042" stroke-width="1.5" stroke-miterlimit="10" stroke-linecap="square"/>
<path d="M19.8936 11.2306L30.588 8.56823C31.8907 8.27002 33.1539 9.25967 33.4097 10.7788L33.4717 11.1481" stroke="#414042" stroke-width="1.5" stroke-miterlimit="10" stroke-linecap="square"/>
</svg>
