<svg width="140" height="93" viewBox="0 0 140 93" fill="none" xmlns="http://www.w3.org/2000/svg">
<path d="M2.85824 82.4853H137.141C137.66 82.4853 138.081 82.9033 138.081 83.4185V86.2641C138.081 88.9528 135.884 91.1331 133.173 91.1331H6.82708C4.11679 91.1331 1.91888 88.9528 1.91748 86.2641V83.4199C1.91748 82.9033 2.33886 82.4853 2.85824 82.4853Z" stroke="#414042" stroke-width="3" stroke-miterlimit="10" stroke-linecap="square"/>
<path d="M67.937 8.61508H72.0626" stroke="#414042" stroke-width="3" stroke-miterlimit="10" stroke-linecap="square"/>
<path d="M14.9844 15.027H125.016" stroke="#414042" stroke-width="3" stroke-miterlimit="10" stroke-linecap="square"/>
<path d="M2.60449 82.5325L14.9828 68.8406V11.8078C14.9828 6.34441 19.4472 1.91562 24.9546 1.91562H115.042C120.55 1.91562 125.014 6.34441 125.014 11.8078V68.8406L137.392 82.5325" stroke="#414042" stroke-width="3" stroke-miterlimit="10" stroke-linecap="square"/>
<path d="M14.9844 68.8878H125.016" stroke="#414042" stroke-width="3" stroke-miterlimit="10" stroke-linecap="square"/>
<path d="M67.937 76.1205H70.6879" stroke="#414042" stroke-width="3" stroke-miterlimit="10" stroke-linecap="square"/>
<path d="M77.5645 76.1205H80.3154" stroke="#414042" stroke-width="3" stroke-miterlimit="10" stroke-linecap="square"/>
<path d="M48.6812 76.1205H51.432" stroke="#414042" stroke-width="3" stroke-miterlimit="10" stroke-linecap="square"/>
<path d="M58.3086 76.1205H61.0595" stroke="#414042" stroke-width="3" stroke-miterlimit="10" stroke-linecap="square"/>
<path d="M39.0537 76.1205H41.8046" stroke="#414042" stroke-width="3" stroke-miterlimit="10" stroke-linecap="square"/>
<path d="M19.7974 76.1205H22.5482" stroke="#414042" stroke-width="3" stroke-miterlimit="10" stroke-linecap="square"/>
<path d="M29.4248 76.1205H32.1757" stroke="#414042" stroke-width="3" stroke-miterlimit="10" stroke-linecap="square"/>
<path d="M107.823 76.1205H110.574" stroke="#414042" stroke-width="3" stroke-miterlimit="10" stroke-linecap="square"/>
<path d="M117.452 76.1205H120.203" stroke="#414042" stroke-width="3" stroke-miterlimit="10" stroke-linecap="square"/>
<path d="M98.1953 76.1205H100.946" stroke="#414042" stroke-width="3" stroke-miterlimit="10" stroke-linecap="square"/>
<path d="M90.6302 61.419H51.3296C48.9273 61.419 46.98 59.4872 46.98 57.104V29.7966C46.98 27.4135 48.9273 25.4817 51.3296 25.4817H90.6302C93.0325 25.4817 94.9798 27.4135 94.9798 29.7966V57.104C94.9798 59.4872 93.0325 61.419 90.6302 61.419Z" fill="#F1BF46" stroke="#414042" stroke-width="3" stroke-miterlimit="10" stroke-linecap="square"/>
<path d="M94.9799 39.407H86.5271C84.8597 39.407 83.5088 40.7471 83.5088 42.4011V44.4982C83.5088 46.1522 84.8597 47.4924 86.5271 47.4924H94.9799" stroke="#414042" stroke-width="3" stroke-miterlimit="10" stroke-linecap="square"/>
<path d="M53.3188 25.4817L82.5328 19.2947C86.0915 18.6017 89.5423 20.9015 90.2409 24.4318L90.4103 25.2901" stroke="#414042" stroke-width="3" stroke-miterlimit="10" stroke-linecap="square"/>
</svg>
