<svg width="140" height="94" viewBox="0 0 140 94" fill="none" xmlns="http://www.w3.org/2000/svg">
<path d="M2.85806 82.4542H137.141C137.66 82.4542 138.081 82.872 138.081 83.3871V86.2316C138.081 88.9192 135.883 91.0988 133.173 91.0988H6.82689C4.11661 91.0988 1.9187 88.9192 1.9173 86.2316V83.3885C1.9173 82.872 2.33868 82.4542 2.85806 82.4542Z" stroke="#414042" stroke-width="3" stroke-miterlimit="10" stroke-linecap="square"/>
<path d="M67.9372 8.61182H72.0628" stroke="#414042" stroke-width="3" stroke-miterlimit="10" stroke-linecap="square"/>
<path d="M14.9844 15.0214H125.016" stroke="#414042" stroke-width="3" stroke-miterlimit="10" stroke-linecap="square"/>
<path d="M2.60468 82.5014L14.983 68.8146V11.8034C14.983 6.34204 19.4474 1.91492 24.9548 1.91492H115.042C120.55 1.91492 125.014 6.34204 125.014 11.8034V68.8146L137.393 82.5014" stroke="#414042" stroke-width="3" stroke-miterlimit="10" stroke-linecap="square"/>
<path d="M14.9844 68.8618H125.016" stroke="#414042" stroke-width="3" stroke-miterlimit="10" stroke-linecap="square"/>
<path d="M67.9372 76.0918H70.6881" stroke="#414042" stroke-width="3" stroke-miterlimit="10" stroke-linecap="square"/>
<path d="M77.5646 76.0918H80.3155" stroke="#414042" stroke-width="3" stroke-miterlimit="10" stroke-linecap="square"/>
<path d="M48.681 76.0918H51.4319" stroke="#414042" stroke-width="3" stroke-miterlimit="10" stroke-linecap="square"/>
<path d="M58.3083 76.0918H61.0592" stroke="#414042" stroke-width="3" stroke-miterlimit="10" stroke-linecap="square"/>
<path d="M39.0536 76.0918H41.8045" stroke="#414042" stroke-width="3" stroke-miterlimit="10" stroke-linecap="square"/>
<path d="M19.7974 76.0918H22.5482" stroke="#414042" stroke-width="3" stroke-miterlimit="10" stroke-linecap="square"/>
<path d="M29.4247 76.0918H32.1756" stroke="#414042" stroke-width="3" stroke-miterlimit="10" stroke-linecap="square"/>
<path d="M107.823 76.0918H110.574" stroke="#414042" stroke-width="3" stroke-miterlimit="10" stroke-linecap="square"/>
<path d="M117.452 76.0918H120.203" stroke="#414042" stroke-width="3" stroke-miterlimit="10" stroke-linecap="square"/>
<path d="M98.1955 76.0918H100.946" stroke="#414042" stroke-width="3" stroke-miterlimit="10" stroke-linecap="square"/>
<path d="M90.6302 61.3958H51.3297C48.9274 61.3958 46.98 59.4648 46.98 57.0825V29.7854C46.98 27.4032 48.9274 25.4721 51.3297 25.4721H90.6302C93.0325 25.4721 94.9799 27.4032 94.9799 29.7854V57.0825C94.9799 59.4648 93.0325 61.3958 90.6302 61.3958Z" fill="#F1BF46" stroke="#414042" stroke-width="3" stroke-miterlimit="10" stroke-linecap="square"/>
<path d="M94.9799 39.3921H86.527C84.8597 39.3921 83.5087 40.7317 83.5087 42.3852V44.4814C83.5087 46.1348 84.8597 47.4745 86.527 47.4745H94.9799" stroke="#414042" stroke-width="3" stroke-miterlimit="10" stroke-linecap="square"/>
<path d="M53.319 25.4721L82.533 19.2874C86.0916 18.5947 89.5425 20.8936 90.241 24.4226L90.4104 25.2805" stroke="#414042" stroke-width="3" stroke-miterlimit="10" stroke-linecap="square"/>
</svg>
